<svg width="32.769638" height="28.000000" viewBox="0 0 32.7696 28" fill="none" xmlns="http://www.w3.org/2000/svg" xmlns:xlink="http://www.w3.org/1999/xlink">
	<desc>
			Created with Pixso.
	</desc>
	<defs/>
	<path id="Vector" d="M32.3775 8.97339L8.25694 0.0371094C7.94842 -0.0769043 7.60565 0.0808105 7.4919 0.389648C7.49165 0.389893 7.49165 0.390137 7.4914 0.390381L4.82126 7.65845C4.70775 7.96729 4.86601 8.30981 5.17477 8.42334L5.17527 8.42334L7.97117 9.44971L7.35514 11.1282C7.24188 11.437 7.40014 11.7791 7.70891 11.8923L13.3017 13.9458L12.8907 15.0647C12.5172 16.0667 12.8657 17.1948 13.7397 17.811L13.7397 20.8511L5.7238 20.8511C5.33578 19.9641 4.54174 19.3201 3.59344 19.1235L3.59344 17.8726C3.59344 17.5435 3.32693 17.2769 2.99766 17.2769L0.595781 17.2769C0.266764 17.2769 0 17.5435 0 17.8726L0 27.4043C0 27.7336 0.266764 28 0.595781 28L2.99766 28C3.32693 28 3.59344 27.7336 3.59344 27.4043L3.59344 26.1536C4.54174 25.9568 5.33578 25.313 5.7238 24.4255L13.7397 24.4255L13.7397 25.0215C13.7397 26.0085 14.5398 26.8088 15.5268 26.8088C16.5139 26.8088 17.3142 26.0085 17.3142 25.0215L17.3142 18.4219C17.8557 18.1533 18.274 17.6875 18.4825 17.1199L18.8935 16.0012L23.9268 17.8479C23.9925 17.8723 24.0618 17.8845 24.1318 17.8845C24.3815 17.8845 24.6051 17.7288 24.6913 17.4941L24.9146 16.886C26.8532 17.2507 28.7203 15.9749 29.0848 14.0366C29.2195 13.3203 29.132 12.5801 28.834 11.915L32.4455 10.0605C32.7382 9.91064 32.854 9.55151 32.704 9.25879C32.636 9.12573 32.5205 9.02319 32.3805 8.97144L32.3775 8.97339ZM14.931 18.3538L15.4243 18.5325C15.6488 18.613 15.8843 18.6594 16.1226 18.6697L16.1226 20.8511L14.931 20.8511L14.931 18.3538ZM2.40213 26.8088L1.19156 26.8088L1.19156 18.4683L2.40213 18.4683L2.40213 26.8088ZM4.785 23.2344C4.784 23.9915 4.30698 24.666 3.59344 24.9197L3.59344 20.3574C4.30698 20.6106 4.784 21.2854 4.785 22.0427L4.785 23.2344ZM5.99507 22.0427L16.1226 22.0427L16.1226 23.2344L5.99507 23.2344L5.99507 22.0427ZM15.5268 25.6172C15.1978 25.6172 14.931 25.3503 14.931 25.0215L14.931 24.4255L16.1226 24.4255L16.1226 25.0215C16.1226 25.3503 15.8558 25.6172 15.5268 25.6172ZM17.7752 15.5908L17.3642 16.7097C17.1372 17.3267 16.4529 17.6433 15.8353 17.4167L14.7148 17.0061C14.0972 16.7795 13.7802 16.095 14.007 15.4771C14.007 15.4771 14.007 15.4771 14.007 15.4768L14.4183 14.3589L17.4379 15.4673L17.7752 15.5908ZM23.7785 16.5261L8.67871 10.9814L9.08998 9.86255L18.0375 13.1482C18.2492 13.2253 18.4867 13.177 18.6515 13.0229L20.3233 11.4492L25.0106 13.1707L23.7785 16.5261ZM27.8065 14.1978C27.429 15.2156 26.4137 15.8516 25.3333 15.7468L26.2539 13.2393L27.7575 12.4651C27.9927 13.0156 28.0102 13.635 27.8065 14.1978ZM25.7956 12.1379C25.7641 12.1406 25.7329 12.1462 25.7021 12.1545L20.3906 10.2041C20.1788 10.1265 19.9413 10.1746 19.7768 10.3291L18.103 11.9033L6.14508 7.51196L8.4037 1.36206L30.6939 9.62036L25.7956 12.1379Z" fill="#E3B873" fill-opacity="1.000000" fill-rule="nonzero"/>
	<path id="Vector 2" d="M11.6556 7.91113L11.1301 9.33105M13.9454 8.75122L13.4199 10.1711M16.1674 9.57764L15.6419 10.9976" stroke="#E3B873" stroke-opacity="1.000000" stroke-width="1.000000"/>
</svg>
