<svg width="71.000000" height="28.000000" viewBox="0 0 71 28" fill="none" xmlns="http://www.w3.org/2000/svg" xmlns:xlink="http://www.w3.org/1999/xlink">
	<desc>
			Created with Pixso.
	</desc>
	<defs/>
	<circle id="Ellipse" cx="14.000000" cy="14.000000" r="14.000000" fill="#E3B873" fill-opacity="1.000000"/>
	<path id="Vector" d="M19.6 8.7998C20.37 8.7998 21 9.42981 21 10.1998L21 18.5999C21 19.3698 20.37 19.9998 19.6 19.9998L8.4 19.9998C7.63 19.9998 7 19.3698 7 18.5999L7 10.1998C7 9.42981 7.63 8.7998 8.4 8.7998L19.6 8.7998Z" stroke="#FFFFFF" stroke-opacity="1.000000" stroke-width="1.500000" stroke-linejoin="round"/>
	<path id="Vector" d="M21 10.2002L14 15.1002L7 10.2002" stroke="#FFFFFF" stroke-opacity="1.000000" stroke-width="1.500000" stroke-linejoin="round" stroke-linecap="round"/>
	<circle id="Ellipse" cx="57.000000" cy="14.000000" r="14.000000" fill="#E3B873" fill-opacity="1.000000"/>
	<path id="Vector" d="M60 8.39941C61.6569 8.39941 63 9.74255 63 11.3994L63 17.3994C63 19.0563 61.6569 20.3994 60 20.3994L54 20.3994C52.3431 20.3994 51 19.0563 51 17.3994L51 11.3994C51 9.74255 52.3431 8.39941 54 8.39941L60 8.39941Z" stroke="#FFFFFF" stroke-opacity="1.000000" stroke-width="1.500000"/>
	<path id="Vector" d="M59.1563 15.479C58.9238 15.9271 58.5559 16.2904 58.105 16.5175C57.6541 16.7444 57.1431 16.8234 56.6447 16.7432C56.1463 16.663 55.6859 16.4276 55.3289 16.0707C54.972 15.7137 54.7367 15.2533 54.6565 14.7549C54.5763 14.2565 54.6553 13.7455 54.8822 13.2947C55.1092 12.8438 55.4725 12.4758 55.9206 12.2433C56.3687 12.0109 56.8787 11.9255 57.378 11.9996C57.8874 12.0751 58.3589 12.3125 58.723 12.6766C59.0871 13.0406 59.3245 13.5122 59.4 14.0216C59.4741 14.521 59.3888 15.0309 59.1563 15.479Z" stroke="#FFFFFF" stroke-opacity="1.000000" stroke-width="1.500000" stroke-linejoin="round"/>
</svg>
