<svg width="114.000000" height="28.000000" viewBox="0 0 114 28" fill="none" xmlns="http://www.w3.org/2000/svg" xmlns:xlink="http://www.w3.org/1999/xlink">
	<desc>
			Created with Pixso.
	</desc>
	<defs/>
	<rect id="Rectangle 6.7" y="12.999756" rx="0.771672" width="32.000000" height="1.543344" fill="#E3B873" fill-opacity="1.000000"/>
	<rect id="Rectangle 6.8" x="82.000000" y="12.999756" rx="0.771672" width="32.000000" height="1.543344" fill="#E3B873" fill-opacity="1.000000"/>
	<path id="Vector" d="M67.405 21.1436C66.8234 20.7341 66.1523 20.5144 65.4744 20.4785C62.9194 18.8054 61.2457 17.5496 60.2686 16.5723L57.2669 13.5708L59.0884 11.5317C59.4336 11.7266 59.8044 11.855 60.1753 11.908C60.4551 11.9546 60.6417 11.9546 60.8283 11.9546C61.2014 11.9546 61.2947 11.9546 61.6679 12.2812C61.4813 12.4211 61.388 12.6543 61.388 12.8875C61.388 13.1206 61.4813 13.4006 61.6679 13.5872L63.3004 15.2197C63.5336 15.4995 63.9067 15.6394 64.2799 15.6394C64.6531 15.6394 65.0262 15.4995 65.2594 15.1731L68.5711 11.8613C68.851 11.6282 68.9909 11.2549 68.9909 10.8818C68.9909 10.5088 68.851 10.1821 68.5711 9.90234L66.9386 8.26978C66.752 8.08325 66.5188 7.98999 66.2855 7.98999C66.0523 7.98999 65.8191 8.12988 65.6325 8.26978C65.2594 7.94336 65.2594 7.8501 65.2594 7.47681C65.2594 7.29028 65.2594 7.05713 65.166 6.7771C65.0727 6.12427 64.7463 5.47119 64.2332 4.95801L62.554 3.27905C61.5745 2.29932 61.1081 1.83301 59.8487 1.27319C57.1434 0.013916 54.3915 0.24707 50.3801 2.06616C50.1469 2.15967 50.0536 2.34619 50.1003 2.57935C50.1469 2.8125 50.3335 2.95264 50.5667 2.95264L51.173 2.95264C53.2253 2.95264 54.2981 2.95264 56.1639 4.81812C56.9808 5.63525 57.0044 6.88794 56.2724 7.80933C56.1738 7.82422 56.0987 7.86865 56.0239 7.94336L53.952 10.2559L52.3858 8.6897C50.6643 6.96826 49.4535 5.33936 48.5216 3.52588C48.4726 2.60815 48.1044 1.74951 47.4416 1.08691C46.6487 0.293945 45.5293 -0.0793457 44.4098 0.0141602C44.2699 0.060791 44.13 0.154053 44.0833 0.247314C43.99 0.387207 43.99 0.57373 44.0833 0.713623L45.3893 3.0459C45.1095 3.6521 44.4564 4.02539 43.8035 3.97876L42.4508 1.73975C42.4042 1.59985 42.2176 1.50659 42.0776 1.50659C41.9377 1.45996 41.7978 1.55322 41.7045 1.69312C40.585 3.37231 41.0048 5.61108 42.684 6.77734C43.2625 7.19043 43.9143 7.42017 44.5743 7.46729C44.5817 7.47046 44.5887 7.47437 44.5963 7.47681C46.4154 8.40967 48.0479 9.62256 49.7737 11.3484L51.4796 13.0154L41.5646 24.082C41.1914 24.4551 41.0049 24.9683 41.0049 25.4812C41.0049 25.9944 41.1914 26.4607 41.5646 26.834L42.2176 27.4871C42.5908 27.8135 43.0572 28 43.5236 28C43.99 28 44.5031 27.8135 44.8763 27.4404L54.78 16.3545L57.6565 19.2312C58.6351 20.2097 59.893 21.9331 61.5699 24.448C61.63 25.3457 61.9974 26.1838 62.6474 26.834C63.347 27.5337 64.2799 27.9067 65.2594 27.9067C65.3993 27.9067 65.5393 27.9067 65.6326 27.9067C65.7725 27.9067 65.9124 27.8135 66.0057 27.6736C66.099 27.5337 66.099 27.3469 66.0057 27.207L64.6531 24.9216C64.9795 24.3152 65.5859 23.9421 66.2856 23.9888L67.5916 26.2275C67.6382 26.3674 67.8248 26.4609 67.9648 26.4609C68.1513 26.4143 68.2912 26.3674 68.3845 26.2275C69.5039 24.5483 69.0375 22.3096 67.405 21.1436ZM56.7703 4.07202C55.2777 2.62598 54.1583 2.15967 52.8989 2.01978C55.5576 1.18018 57.5166 1.22681 59.4756 2.11304C60.595 2.57935 60.9682 2.95264 61.9477 3.93213L63.6269 5.61133C64 5.98438 64.2332 6.45093 64.2799 6.91724C64.3265 7.15039 64.3265 7.33691 64.3265 7.47705C64.3265 7.98999 64.3731 8.36304 64.9329 8.92285C65.1194 9.10938 65.3993 9.20264 65.6325 9.20264C65.9124 9.20264 66.1456 9.10938 66.2855 8.92285L67.9181 10.5554C68.0114 10.6487 68.058 10.7419 68.058 10.8818C68.058 11.0217 68.0114 11.1152 67.9181 11.2083L64.6064 14.52C64.4198 14.7065 64.14 14.7065 63.9534 14.52L62.3208 12.8875C62.5074 12.7476 62.6007 12.5144 62.5541 12.2346C62.5541 12.0012 62.4608 11.7214 62.2742 11.5349C61.7145 10.9751 61.3413 10.9285 60.8283 10.9285C60.6884 10.9285 60.5018 10.9285 60.2686 10.8818C59.7555 10.8352 59.3357 10.6021 58.9626 10.2288L56.9569 8.22314C57.983 6.96387 57.8898 5.19141 56.7703 4.07202ZM42.1243 2.95264L43.1038 4.63184C43.1971 4.77173 43.3371 4.86499 43.477 4.86499L43.7102 4.86499C44.783 4.91162 45.7626 4.35181 46.229 3.41895L46.3223 3.18579C46.4156 3.0459 46.4156 2.90601 46.3223 2.76611L45.2961 0.993652C45.8558 1.08691 46.3689 1.3667 46.7887 1.78662C47.2696 2.30737 47.5775 2.96631 47.5957 3.67407C47.5867 3.70996 47.5816 3.74854 47.5816 3.79224C47.5816 4.0083 47.5555 4.21899 47.5072 4.42212C47.3313 5.09741 46.9094 5.68628 46.3222 6.07764C45.3893 6.68408 44.13 6.68408 43.1971 6.03125C42.2176 5.3313 41.7978 4.07202 42.1243 2.95264ZM50.4268 10.6953C49.0275 9.24951 47.6282 8.12988 46.1356 7.24365C46.3688 7.15039 46.6487 7.0105 46.8819 6.87061C47.5815 6.40405 48.0479 5.79785 48.3278 5.05151C49.214 6.54395 50.3334 7.94336 51.7327 9.34277L53.3348 10.9448L52.0785 12.3472L50.4268 10.6953ZM44.2233 26.7407C43.8501 27.1138 43.2438 27.1604 42.8706 26.7874L42.2176 26.1809C42.031 25.9944 41.9377 25.7612 41.9377 25.5278C41.9377 25.248 42.031 25.0149 42.2642 24.7815L42.5284 24.4861L43.1971 25.1548C43.2904 25.248 43.3836 25.2947 43.5236 25.2947C43.6635 25.2947 43.7568 25.248 43.85 25.1548C44.0366 24.9683 44.0366 24.6885 43.85 24.5017L43.1447 23.7964L43.7611 23.1067L44.5031 23.8486C44.5964 23.9421 44.6896 23.9888 44.8296 23.9888C44.9695 23.9888 45.0628 23.9421 45.156 23.8486C45.3426 23.6621 45.3426 23.3823 45.156 23.1958L44.3776 22.4172L56.3751 8.99414L58.3341 10.9531L56.4093 13.1067C56.3543 13.1299 56.3057 13.1655 56.2572 13.2141L54.3915 15.313C54.3382 15.3662 54.3007 15.4272 54.2779 15.4915L44.2233 26.7407ZM55.4182 15.6401L56.6947 14.2112L59.7088 17.2253C60.5484 18.1116 61.9943 19.231 64.0932 20.6304C63.8134 20.7236 63.5335 20.8635 63.2537 21.05C62.675 21.4119 62.2651 21.9141 61.9795 22.469C61.9753 22.4771 61.9714 22.4851 61.9673 22.4932C61.9503 22.5266 61.9338 22.5601 61.9178 22.5938C61.8948 22.6416 61.8729 22.6899 61.852 22.739C61.8376 22.772 61.8234 22.8049 61.8099 22.8384C61.808 22.8433 61.8061 22.8479 61.8042 22.8528C61.7895 22.8892 61.7749 22.9258 61.7611 22.9624C61.4962 22.574 61.2413 22.2073 60.9961 21.8618L61.6212 21.2368C61.8077 21.0503 61.8077 20.7703 61.6212 20.5837C61.4346 20.3972 61.1548 20.3972 60.9682 20.5837L60.4482 21.1038C60.2543 20.8406 60.0671 20.5925 59.8865 20.3594L60.3152 19.9307C60.5017 19.7441 60.5017 19.4644 60.3152 19.2776C60.1286 19.0911 59.8488 19.0911 59.6622 19.2776L59.3061 19.6338C58.9633 19.2205 58.6471 18.8689 58.3562 18.5781L55.4182 15.6401ZM67.918 24.9683L66.9385 23.2891C66.8452 23.1492 66.7053 23.0557 66.5653 23.0557L66.3321 23.0557C65.2593 22.9624 64.2798 23.5688 63.8134 24.5017L63.7201 24.7349C63.6268 24.8748 63.6268 25.0149 63.7201 25.1548L64.7462 26.9272C64.1865 26.834 63.6734 26.554 63.2536 26.1343C62.7818 25.623 62.4769 24.9792 62.4482 24.2869C62.4562 24.2527 62.4606 24.2161 62.4606 24.1753C62.4606 23.5842 62.6482 23.031 62.9752 22.5625C63.176 22.283 63.4273 22.0383 63.72 21.843C64.1864 21.5166 64.6995 21.3767 65.2592 21.3767C65.819 21.3767 66.3787 21.5632 66.8451 21.8896C67.8248 22.5894 68.2446 23.8486 67.918 24.9683Z" fill="#E3B873" fill-opacity="1.000000" fill-rule="nonzero"/>
</svg>
