<svg width="112.000000" height="112.000000" viewBox="0 0 112 112" fill="none" xmlns="http://www.w3.org/2000/svg" xmlns:xlink="http://www.w3.org/1999/xlink">
	<desc>
			Created with Pixso.
	</desc>
	<defs>
		<filter id="filter_1_11116_dd" x="0.000000" y="0.000000" width="112.000000" height="112.000000" filterUnits="userSpaceOnUse" color-interpolation-filters="sRGB">
			<feFlood flood-opacity="0" result="BackgroundImageFix"/>
			<feColorMatrix in="SourceAlpha" type="matrix" values="0 0 0 0 0 0 0 0 0 0 0 0 0 0 0 0 0 0 127 0" result="hardAlpha"/>
			<feOffset dx="0" dy="10"/>
			<feGaussianBlur stdDeviation="6.66667"/>
			<feComposite in2="hardAlpha" operator="out" k2="-1" k3="1"/>
			<feColorMatrix type="matrix" values="0 0 0 0 0.92941 0 0 0 0 0.75294 0 0 0 0 0.47059 0 0 0 0.2 0"/>
			<feBlend mode="normal" in2="BackgroundImageFix" result="effect_dropShadow_1"/>
			<feBlend mode="normal" in="SourceGraphic" in2="effect_dropShadow_1" result="shape"/>
		</filter>
	</defs>
	<g filter="url(#filter_1_11116_dd)">
		<circle id="Ellipse" cx="56.000000" cy="46.000000" r="36.000000" fill="#E3B873" fill-opacity="1.000000"/>
	</g>
	<path id="Vector" d="M56.3396 53.3281C55.9878 53.3281 55.7026 53.6061 55.7026 53.9492L55.7026 55.2738C55.7026 55.6168 55.9878 55.8948 56.3396 55.8948C56.6914 55.8948 56.9765 55.6168 56.9765 55.2738L56.9765 53.9492C56.9765 53.6061 56.6914 53.3281 56.3396 53.3281Z" fill="#FFFFFF" fill-opacity="1.000000" fill-rule="nonzero"/>
	<path id="Vector" d="M55.653 53.681Q55.6026 53.8049 55.6026 53.9492L55.6026 55.2738Q55.6026 55.418 55.653 55.5419Q55.7071 55.675 55.8194 55.7845Q55.9231 55.8856 56.0473 55.9381Q56.1815 55.9948 56.3396 55.9948Q56.4977 55.9948 56.6319 55.9381Q56.7561 55.8856 56.8598 55.7845Q56.9721 55.675 57.0262 55.5419Q57.0765 55.418 57.0765 55.2738L57.0765 53.9492Q57.0765 53.8049 57.0262 53.681Q56.9721 53.5479 56.8598 53.4384Q56.7561 53.3373 56.6319 53.2848Q56.4977 53.2281 56.3396 53.2281Q56.1815 53.2281 56.0473 53.2848Q55.9231 53.3373 55.8194 53.4384Q55.7071 53.5479 55.653 53.681ZM55.7026 53.9492C55.7026 53.6061 55.9878 53.3281 56.3396 53.3281C56.6914 53.3281 56.9765 53.6061 56.9765 53.9492L56.9765 55.2738C56.9765 55.6168 56.6914 55.8948 56.3396 55.8948C55.9878 55.8948 55.7026 55.6168 55.7026 55.2738L55.7026 53.9492Z" fill="#FFFFFF" fill-opacity="1.000000" fill-rule="evenodd"/>
	<path id="Vector" d="M75.6144 44.4301C75.3658 44.1877 75.0354 44.0542 74.6837 44.0542C74.6837 44.0542 74.6836 44.0542 74.6835 44.0542L73.0484 44.0544C73.0277 44.0544 73.0135 44.0317 73.0091 44.0107C72.5597 41.8613 71.5518 39.835 70.0943 38.1506C68.6855 36.5227 66.8813 35.2424 64.8693 34.4383C64.5448 33.1025 63.8595 31.7253 62.5082 30.6901C61.1999 29.6878 59.8823 29.4949 59.8269 29.4872C59.6444 29.4618 59.459 29.5148 59.3195 29.6328C59.1799 29.7508 59.0998 29.9219 59.0998 30.1019L59.0998 33.4555L56.7883 33.4555C56.217 31.5444 54.4055 30.1434 52.2634 30.1434C50.0758 30.1434 48.2319 31.6041 47.7027 33.5776C44.5534 33.9958 41.6559 35.4835 39.5059 37.7964C37.2451 40.2289 36 43.3775 36 46.6625C36 54.0361 39.9262 60.0356 41.1296 61.6987C41.5013 62.2124 42.1102 62.5192 42.7582 62.5192L45.4692 62.5192C46.5697 62.5192 47.465 61.6463 47.465 60.5734L47.465 59.7137C48.151 59.8168 48.848 59.8696 49.5457 59.8696L55.7028 59.8696L55.7028 60.5734C55.7028 61.6463 56.5981 62.5192 57.6986 62.5192L60.6765 62.5192C61.6113 62.5192 62.432 61.8723 62.6279 60.9811L62.9548 59.494C67.141 58.4999 70.5069 55.6365 72.1635 51.9207L74.6837 51.9207C75.4095 51.9207 76 51.3449 76 50.6372L76 45.3378C76 44.9948 75.8631 44.6725 75.6144 44.4301ZM52.2633 31.3855C54.1599 31.3855 55.7027 32.8899 55.7027 34.7391C55.7027 35.2119 55.5989 35.6777 55.4033 36.1053L49.1232 36.1053C48.9277 35.6776 48.8237 35.2119 48.8237 34.7391C48.8237 32.8898 50.3667 31.3855 52.2633 31.3855ZM74.7261 50.637C74.7261 50.6599 74.7071 50.6785 74.6836 50.6785L72.6423 50.6785C72.9893 49.6194 73.2028 48.5056 73.2639 47.3571C73.2822 47.0146 73.0121 46.7225 72.6608 46.7048C72.3094 46.6874 72.0099 46.9503 71.9917 47.2928C71.7219 52.3652 68.1809 56.6962 63.2549 58.1284L64.1448 54.0795C64.2185 53.7441 63.9994 53.414 63.6554 53.3422C63.3116 53.2701 62.9728 53.4839 62.8991 53.8193L61.3823 60.7208C61.3114 61.0431 61.0145 61.2771 60.6765 61.2771L57.6984 61.2771C57.3004 61.2771 56.9766 60.9614 56.9766 60.5733L56.9766 57.9236C56.9766 57.5806 56.6914 57.3026 56.3396 57.3026C55.9878 57.3026 55.7027 57.5806 55.7027 57.9236L55.7027 58.6274L49.5455 58.6274C48.8467 58.6274 48.1491 58.5688 47.4648 58.4551L47.4648 53.9492C47.4648 53.6061 47.1797 53.3281 46.8279 53.3281C46.4761 53.3281 46.1909 53.6061 46.1909 53.9492L46.1909 60.5734C46.1909 60.9615 45.8671 61.2772 45.4691 61.2772L42.7582 61.2772C42.5201 61.2772 42.3059 61.1699 42.1705 60.9827C41.0219 59.3951 37.2739 53.6705 37.2739 46.6625C37.2739 43.6863 38.4018 40.8338 40.4498 38.6306C42.324 36.614 44.8247 35.2902 47.5519 34.8554C47.5629 35.2809 47.6345 35.7017 47.7629 36.1052L47.5074 36.1052C47.1556 36.1052 46.8705 36.3832 46.8705 36.7261C46.8705 37.0692 47.1556 37.3472 47.5074 37.3472L57.0191 37.3472C57.3709 37.3472 57.6561 37.0692 57.6561 36.7261C57.6561 36.3832 57.3709 36.1052 57.0191 36.1052L56.7636 36.1052C56.9038 35.6649 56.9766 35.2042 56.9766 34.7389C56.9766 34.725 56.9757 34.7114 56.9756 34.6975L59.0998 34.6975L59.0998 36.0637C59.0998 36.4067 59.3849 36.6848 59.7367 36.6848C60.0885 36.6848 60.3737 36.4067 60.3737 36.0637L60.3737 30.9174C61.5822 31.3633 63.8556 32.7329 63.8556 36.7263C63.8556 37.0692 64.1408 37.3473 64.4926 37.3473C64.8444 37.3473 65.1295 37.0692 65.1295 36.7263C65.1295 36.4631 65.1198 36.1854 65.0974 35.8983C66.6339 36.628 68.0123 37.6709 69.1207 38.9518C70.441 40.4775 71.354 42.3127 71.7609 44.2589C71.8866 44.8602 72.4282 45.2966 73.0487 45.2966L74.6837 45.2964C74.688 45.2964 74.7013 45.2964 74.7137 45.3085C74.7262 45.3206 74.7262 45.3334 74.7262 45.3378L74.7262 50.637L74.7261 50.637Z" fill="#FFFFFF" fill-opacity="1.000000" fill-rule="nonzero"/>
	<path id="Vector" d="M75.0217 43.9934Q74.8574 43.9542 74.6837 43.9542L74.6835 43.9542L73.0995 43.9544Q72.9941 43.4577 72.8506 42.9722Q72.5302 41.8888 72.0193 40.8618Q71.6695 40.1585 71.2424 39.5058Q70.7562 38.7628 70.1699 38.0852Q69.8447 37.7094 69.4937 37.3596Q68.6964 36.5649 67.7659 35.904Q67.0434 35.3909 66.2678 34.9776Q65.629 34.6372 64.9541 34.3646Q64.5445 32.7214 63.5647 31.5587Q63.1244 31.0362 62.569 30.6107Q62.2581 30.3725 61.9234 30.1744Q61.3606 29.8411 60.7307 29.6213Q60.4104 29.5095 60.1076 29.44Q59.946 29.4029 59.8408 29.3881Q59.7607 29.377 59.6819 29.3828Q59.6051 29.3884 59.5295 29.4101Q59.445 29.4343 59.3703 29.4762Q59.3093 29.5104 59.2549 29.5565Q59.1881 29.613 59.1378 29.6816Q59.0968 29.7376 59.0668 29.8017Q59.0321 29.8757 59.0154 29.9536Q58.9998 30.0261 58.9998 30.1019L58.9998 33.3555L56.8621 33.3555Q56.7823 33.103 56.6747 32.863Q56.4898 32.4501 56.2231 32.0739Q56.0401 31.8157 55.8265 31.5859Q55.53 31.2668 55.1746 31.0025Q54.8725 30.7778 54.5434 30.6043Q54.1992 30.4229 53.8256 30.2974Q53.5226 30.1956 53.2116 30.1346Q52.7464 30.0434 52.2634 30.0434Q51.774 30.0434 51.3032 30.1369Q50.9822 30.2007 50.6698 30.3079Q50.288 30.439 49.9377 30.6284Q49.6048 30.8083 49.3004 31.041Q48.9375 31.3184 48.6382 31.6528Q48.4274 31.8884 48.2482 32.1523Q47.9858 32.5387 47.8083 32.9608Q47.7004 33.2175 47.6239 33.4874Q46.3612 33.6609 45.1709 34.0537Q44.1508 34.3902 43.1838 34.8876Q42.0537 35.4689 41.066 36.2339Q40.1938 36.9095 39.4326 37.7284Q38.4329 38.804 37.7059 40.0399Q37.1905 40.9161 36.8121 41.873Q36.3621 43.011 36.1341 44.192Q35.9 45.4047 35.9 46.6625Q35.9 49.2443 36.535 51.9119Q37.0654 54.1403 38.0217 56.3616Q38.1713 56.7092 38.3297 57.0529Q38.9625 58.4261 39.7343 59.7354Q40.388 60.8444 41.0486 61.7573Q41.1744 61.9312 41.3298 62.0726Q41.5364 62.2605 41.7953 62.3909Q42.012 62.5001 42.2417 62.5571Q42.4922 62.6193 42.7582 62.6193L45.4692 62.6193Q45.7097 62.6193 45.9386 62.5679Q46.1145 62.5283 46.2835 62.4585Q46.48 62.3774 46.653 62.2613Q46.8111 62.1553 46.9496 62.0203Q47.1212 61.853 47.2471 61.6564Q47.3343 61.5202 47.3996 61.3699Q47.4798 61.1855 47.5211 60.9928Q47.565 60.7878 47.565 60.5734L47.565 59.8294Q48.3118 59.9354 49.0614 59.9612Q49.3034 59.9695 49.5457 59.9695L55.6028 59.9695L55.6028 60.5734Q55.6028 60.7879 55.6468 60.993Q55.6881 61.1856 55.7682 61.3699Q55.8335 61.5203 55.9208 61.6565Q56.0467 61.853 56.2182 62.0203Q56.3567 62.1553 56.5147 62.2613Q56.6878 62.3773 56.8843 62.4585Q57.0533 62.5283 57.2291 62.5678Q57.4581 62.6193 57.6986 62.6193L60.6765 62.6193Q60.856 62.6193 61.0306 62.5897Q61.2086 62.5595 61.3815 62.4985Q61.5512 62.4387 61.7063 62.3527Q61.8555 62.2699 61.9912 62.1629Q62.1637 62.027 62.3015 61.8621Q62.3851 61.762 62.456 61.6514Q62.5666 61.4786 62.6389 61.2912Q62.6929 61.151 62.7256 61.0026L63.039 59.5766Q63.9484 59.3564 64.8121 59.019Q65.4025 58.7885 65.9716 58.5032Q66.7284 58.1238 67.4274 57.6578Q68.0203 57.2625 68.5716 56.8049Q69.2721 56.2236 69.8833 55.56Q70.3105 55.0963 70.694 54.5924Q71.293 53.8055 71.7644 52.9486Q72.0142 52.4944 72.2283 52.0206L74.6837 52.0206Q74.8456 52.0206 74.9998 51.9861Q75.1191 51.9594 75.2337 51.912Q75.3661 51.8574 75.4827 51.7793Q75.5899 51.7075 75.6838 51.6159Q75.7994 51.5032 75.8843 51.371Q75.9437 51.2784 75.9881 51.1761Q76.0423 51.0515 76.0703 50.9211Q76.1 50.7823 76.1 50.6372L76.1 45.3378Q76.1 45.182 76.0662 45.0339Q76.0397 44.9182 75.9925 44.8071Q75.9536 44.7154 75.9023 44.6312Q75.8122 44.4833 75.6842 44.3584Q75.5773 44.2543 75.454 44.176Q75.3459 44.1073 75.2252 44.0585Q75.1253 44.0182 75.0217 43.9934ZM72.1635 51.9207L74.6837 51.9207C75.4095 51.9207 76 51.3449 76 50.6372L76 45.3378C76 44.9948 75.8631 44.6725 75.6144 44.4301C75.3658 44.1877 75.0354 44.0542 74.6837 44.0542L74.6835 44.0542L73.0484 44.0544C73.0277 44.0544 73.0135 44.0317 73.0091 44.0107C72.5597 41.8613 71.5518 39.835 70.0943 38.1506C68.6855 36.5227 66.8813 35.2424 64.8693 34.4383C64.5448 33.1025 63.8595 31.7253 62.5082 30.6901C61.1999 29.6878 59.8823 29.4949 59.8269 29.4872C59.6444 29.4618 59.459 29.5148 59.3195 29.6328C59.1799 29.7508 59.0998 29.9219 59.0998 30.1019L59.0998 33.4555L58.9998 33.4555L56.7883 33.4555C56.217 31.5444 54.4055 30.1434 52.2634 30.1434C50.0758 30.1434 48.2319 31.6041 47.7027 33.5776C44.5534 33.9958 41.6559 35.4835 39.5059 37.7964C37.2451 40.2289 36 43.3775 36 46.6625C36 54.0361 39.9262 60.0356 41.1296 61.6987C41.5013 62.2124 42.1102 62.5192 42.7582 62.5192L45.4692 62.5192C46.5697 62.5192 47.465 61.6463 47.465 60.5734L47.465 59.7137C47.4983 59.7188 47.5316 59.7236 47.565 59.7284C48.2187 59.8218 48.8819 59.8696 49.5457 59.8696L55.6028 59.8696L55.7028 59.8695L55.7028 60.5734C55.7028 61.6463 56.5981 62.5192 57.6986 62.5192L60.6765 62.5192C61.6113 62.5192 62.432 61.8723 62.6279 60.9811L62.9548 59.494C67.141 58.4999 70.5069 55.6365 72.1635 51.9207ZM74.7262 50.637L74.7262 45.3378C74.7262 45.3334 74.7262 45.3206 74.7137 45.3085C74.7013 45.2964 74.688 45.2964 74.6837 45.2964L73.0487 45.2966C72.4282 45.2966 71.8866 44.8602 71.7609 44.2589C71.354 42.3127 70.441 40.4775 69.1207 38.9518C68.0374 37.6999 66.6961 36.6753 65.2014 35.9482C65.1669 35.9315 65.1322 35.9147 65.0974 35.8983C65.1004 35.9367 65.1032 35.975 65.1057 36.0131C65.1222 36.2595 65.1295 36.4984 65.1295 36.7263C65.1295 37.0692 64.8444 37.3473 64.4926 37.3473C64.1408 37.3473 63.8556 37.0692 63.8556 36.7263C63.8556 32.8406 61.7031 31.439 60.4737 30.9555C60.4396 30.9421 60.4062 30.9294 60.3737 30.9174L60.3737 36.0637C60.3737 36.4067 60.0885 36.6848 59.7367 36.6848C59.3849 36.6848 59.0998 36.4067 59.0998 36.0637L59.0998 34.6975L56.9756 34.6975C56.9757 34.7114 56.9766 34.725 56.9766 34.7389C56.9766 34.7584 56.9765 34.778 56.9763 34.7975C56.9709 35.2078 56.909 35.614 56.7942 36.0051C56.7844 36.0386 56.7742 36.0719 56.7636 36.1052L57.0191 36.1052C57.3709 36.1052 57.6561 36.3832 57.6561 36.7261C57.6561 37.0692 57.3709 37.3472 57.0191 37.3472L47.5074 37.3472C47.1556 37.3472 46.8705 37.0692 46.8705 36.7261C46.8705 36.3832 47.1556 36.1052 47.5074 36.1052L47.7629 36.1052C47.7523 36.0719 47.7421 36.0386 47.7323 36.0051C47.6325 35.6645 47.5728 35.3123 47.5556 34.9561C47.554 34.9225 47.5527 34.889 47.5519 34.8554C47.5186 34.8607 47.4854 34.8661 47.4523 34.8716C44.7638 35.3225 42.3011 36.6386 40.4498 38.6306C38.4018 40.8338 37.2739 43.6863 37.2739 46.6625C37.2739 53.6705 41.0219 59.3951 42.1705 60.9827C42.3059 61.1699 42.5201 61.2772 42.7582 61.2772L45.4691 61.2772C45.8671 61.2772 46.1909 60.9615 46.1909 60.5734L46.1909 53.9492C46.1909 53.6061 46.4761 53.3281 46.8279 53.3281C47.1797 53.3281 47.4648 53.6061 47.4648 53.9492L47.4648 58.4551C48.1491 58.5688 48.8467 58.6274 49.5455 58.6274L55.7027 58.6274L55.7027 57.9236C55.7027 57.5806 55.9878 57.3026 56.3396 57.3026C56.6914 57.3026 56.9766 57.5806 56.9766 57.9236L56.9766 60.5733C56.9766 60.9614 57.3004 61.2771 57.6984 61.2771L60.6765 61.2771C61.0145 61.2771 61.3114 61.0431 61.3823 60.7208L62.8991 53.8193C62.9728 53.4839 63.3116 53.2701 63.6554 53.3422C63.9994 53.414 64.2185 53.7441 64.1448 54.0795L63.2793 58.017L63.2549 58.1284C63.2914 58.1178 63.3279 58.107 63.3643 58.096C68.2333 56.6318 71.7239 52.3276 71.9917 47.2928C72.0099 46.9503 72.3094 46.6874 72.6608 46.7048C73.0121 46.7225 73.2822 47.0146 73.2639 47.3571C73.2047 48.4695 73.0026 49.5494 72.6747 50.5785C72.664 50.6119 72.6532 50.6452 72.6423 50.6785L74.6836 50.6785C74.7071 50.6785 74.7261 50.6599 74.7261 50.637L74.7262 50.637ZM74.6262 50.537L74.6262 45.3964L73.0487 45.3965Q72.8033 45.3966 72.5841 45.3208Q72.3561 45.242 72.1565 45.0811Q71.9489 44.9138 71.8228 44.6987Q71.7108 44.5078 71.6631 44.2794Q71.5703 43.8356 71.4432 43.4019Q71.156 42.4214 70.6938 41.4922Q70.3885 40.8785 70.0171 40.3079Q69.5774 39.6324 69.0451 39.0172Q68.8379 38.7778 68.6188 38.55Q67.9672 37.8728 67.2092 37.298Q66.7191 36.9264 66.1971 36.6069Q65.7166 36.313 65.2092 36.0634Q65.2295 36.3939 65.2295 36.7263Q65.2295 36.8705 65.1792 36.9943Q65.1251 37.1275 65.0128 37.237Q64.9091 37.3381 64.7848 37.3906Q64.6507 37.4473 64.4926 37.4473Q64.3345 37.4473 64.2003 37.3906Q64.0761 37.3381 63.9724 37.237Q63.8601 37.1275 63.806 36.9943Q63.7556 36.8705 63.7556 36.7263Q63.7556 34.1332 62.4902 32.5546L62.4898 32.5541Q62.2749 32.286 62.0271 32.0529Q61.7243 31.7678 61.3724 31.535Q61.114 31.364 60.8386 31.2269Q60.6597 31.1378 60.4737 31.063L60.4737 36.0637Q60.4737 36.2079 60.4234 36.3318Q60.3692 36.465 60.2569 36.5745Q60.1532 36.6755 60.029 36.728Q59.8948 36.7847 59.7367 36.7847Q59.5786 36.7847 59.4444 36.728Q59.3202 36.6755 59.2165 36.5745Q59.1042 36.465 59.0501 36.3318Q58.9998 36.208 58.9998 36.0637L58.9998 34.7975L57.0763 34.7975Q57.0728 35.0773 57.0356 35.3525Q56.9911 35.6821 56.8983 36.0051L57.0191 36.0051Q57.1772 36.0051 57.3114 36.0618Q57.4356 36.1143 57.5394 36.2155Q57.6516 36.3249 57.7058 36.4581Q57.7561 36.5818 57.7561 36.7261Q57.7561 36.8704 57.7058 36.9943Q57.6517 37.1274 57.5394 37.2369Q57.4357 37.338 57.3114 37.3905Q57.1772 37.4472 57.0191 37.4472L47.5074 37.4472Q47.3493 37.4472 47.2152 37.3905Q47.0909 37.338 46.9872 37.2369Q46.8749 37.1274 46.8208 36.9943Q46.7705 36.8704 46.7705 36.7261Q46.7705 36.5819 46.8208 36.4581Q46.8749 36.325 46.9872 36.2155Q47.0909 36.1143 47.2152 36.0618Q47.3493 36.0051 47.5074 36.0051L47.6282 36.0051Q47.5503 35.7334 47.5065 35.4563Q47.4686 35.2164 47.4563 34.9724Q46.4073 35.1492 45.4183 35.4966Q44.55 35.8016 43.7279 36.2382Q42.7657 36.749 41.922 37.4108Q41.1763 37.9958 40.523 38.6986Q39.6308 39.6586 38.9822 40.7617Q38.5236 41.5417 38.1868 42.3934Q37.7862 43.4066 37.583 44.4579Q37.3739 45.54 37.3739 46.6625Q37.3739 49.0933 37.9747 51.61Q38.4771 53.7144 39.3833 55.8156Q39.479 56.0376 39.5785 56.2579Q40.2157 57.6688 41.007 59.0101Q41.6262 60.0598 42.2516 60.9241Q42.2982 60.9886 42.3577 61.0376Q42.4094 61.08 42.4706 61.1107Q42.5099 61.1304 42.5512 61.1443Q42.6492 61.1772 42.7582 61.1772L45.4691 61.1772Q45.6031 61.1772 45.7169 61.1291Q45.8218 61.0847 45.9095 60.9992Q46.0056 60.9055 46.0508 60.7914Q46.0909 60.6904 46.0909 60.5734L46.0909 53.9492Q46.0909 53.8049 46.1413 53.681Q46.1954 53.5479 46.3077 53.4384Q46.4114 53.3373 46.5357 53.2848Q46.6698 53.2281 46.8279 53.2281Q46.986 53.2281 47.1201 53.2848Q47.2444 53.3373 47.3481 53.4384Q47.4604 53.5479 47.5145 53.6811Q47.5648 53.8049 47.5648 53.9492L47.5648 58.3701Q48.2974 58.4868 49.0334 58.517Q49.2893 58.5274 49.5455 58.5274L55.6027 58.5274L55.6027 57.9236Q55.6027 57.7793 55.653 57.6555Q55.7071 57.5223 55.8194 57.4128Q55.9231 57.3117 56.0473 57.2592Q56.1815 57.2026 56.3396 57.2025Q56.4977 57.2025 56.6319 57.2592Q56.7561 57.3117 56.8598 57.4128Q56.9721 57.5223 57.0262 57.6555Q57.0766 57.7793 57.0766 57.9236L57.0766 60.5733Q57.0766 60.6903 57.1167 60.7914Q57.1619 60.9054 57.258 60.9991Q57.3457 61.0846 57.4507 61.129Q57.5644 61.1771 57.6984 61.1771L60.6765 61.1771Q60.7846 61.1771 60.8814 61.1439Q60.9805 61.11 61.0677 61.0413Q61.1649 60.9646 61.2216 60.8649Q61.2649 60.7888 61.2846 60.6993L62.8015 53.7979Q62.832 53.6589 62.906 53.5494Q62.9878 53.4285 63.1226 53.3433Q63.2486 53.2639 63.3847 53.2386Q63.5249 53.2126 63.6758 53.2443Q63.8324 53.2769 63.9525 53.3614Q64.0612 53.4379 64.14 53.5567Q64.225 53.6846 64.25 53.8234Q64.274 53.9572 64.2424 54.101L63.3889 57.9841Q64.2979 57.7065 65.1432 57.2977Q65.8994 56.9319 66.6047 56.4612Q67.4586 55.8914 68.1948 55.1968Q68.7805 54.6442 69.2917 54.0128Q69.9921 53.1475 70.5118 52.1846Q70.8505 51.557 71.1124 50.8879Q71.4595 50.0009 71.6554 49.0816Q71.8433 48.1994 71.8919 47.2875Q71.8995 47.144 71.9559 47.0234Q72.017 46.8927 72.1353 46.7887Q72.2442 46.6931 72.371 46.6469Q72.5079 46.597 72.6658 46.6049Q72.8242 46.6129 72.9556 46.6766Q73.0764 46.7354 73.1744 46.8412Q73.2805 46.9561 73.3275 47.0914Q73.3715 47.2179 73.3638 47.3624Q73.3211 48.165 73.1809 48.9502Q73.0339 49.7739 72.7796 50.5785L74.6261 50.5785L74.6261 50.537L74.6262 50.537ZM52.2633 31.3855C54.1599 31.3855 55.7027 32.8899 55.7027 34.7391C55.7027 35.2119 55.5989 35.6777 55.4033 36.1053L49.1232 36.1053C48.9277 35.6776 48.8237 35.2119 48.8237 34.7391C48.8237 32.8898 50.3667 31.3855 52.2633 31.3855ZM49.1881 36.0053Q49.0426 35.6704 48.9772 35.3206Q48.9238 35.0349 48.9238 34.7391Q48.9238 34.3978 48.9939 34.0715Q49.0594 33.7665 49.1862 33.4748Q49.288 33.2405 49.4235 33.0276Q49.6254 32.7102 49.9021 32.4404Q50.1222 32.2258 50.3732 32.0573Q50.6498 31.8716 50.9639 31.7419Q51.2304 31.6318 51.5077 31.569Q51.876 31.4855 52.2633 31.4855Q52.6506 31.4855 53.0189 31.569Q53.2961 31.6318 53.5626 31.7419Q53.8769 31.8717 54.1536 32.0576Q54.4044 32.226 54.6244 32.4405Q54.9011 32.7103 55.103 33.0276Q55.2385 33.2405 55.3403 33.4748Q55.467 33.7665 55.5326 34.0712Q55.6027 34.3976 55.6027 34.7391Q55.6027 35.0404 55.5473 35.3312Q55.4818 35.6756 55.3384 36.0053L49.1881 36.0053Z" fill="#FFFFFF" fill-opacity="1.000000" fill-rule="evenodd"/>
	<path id="Vector" d="M69.1658 44.4584C68.7705 43.4243 67.724 42.7295 66.5621 42.7295C65.4001 42.7295 64.3538 43.4243 63.9583 44.4584C63.8354 44.7798 64.003 45.1375 64.3326 45.2573C64.6623 45.3773 65.0291 45.2137 65.1519 44.8923C65.3625 44.3416 65.9292 43.9716 66.562 43.9716C67.1948 43.9716 67.7616 44.3416 67.9722 44.8923C68.0677 45.1422 68.3107 45.2966 68.5691 45.2966C68.643 45.2966 68.7182 45.2839 68.7915 45.2573C69.1211 45.1375 69.2887 44.7797 69.1658 44.4584Z" fill="#FFFFFF" fill-opacity="1.000000" fill-rule="nonzero"/>
	<path id="Vector" d="M67.0379 42.6672Q66.803 42.6295 66.5621 42.6295Q66.3207 42.6295 66.0854 42.6674Q65.8863 42.6994 65.6916 42.7585Q65.4402 42.8349 65.2096 42.9522Q65.0591 43.0288 64.9175 43.1229Q64.6622 43.2923 64.4533 43.5068Q64.3684 43.5941 64.2911 43.6888Q64.1133 43.9066 63.9867 44.151Q63.9183 44.283 63.8649 44.4227Q63.8114 44.5626 63.8162 44.7004Q63.8211 44.8392 63.8852 44.9759Q63.9454 45.1044 64.0413 45.1954Q64.1478 45.2965 64.2984 45.3513Q64.4415 45.4033 64.5826 45.3982Q64.7226 45.3931 64.8605 45.3317Q65.0067 45.2665 65.1055 45.1582Q65.1946 45.0606 65.2453 44.928Q65.2984 44.7892 65.3798 44.6697Q65.5228 44.4597 65.7533 44.3091Q65.9091 44.2074 66.0798 44.1492Q66.3077 44.0715 66.562 44.0715Q66.8164 44.0715 67.0443 44.1492Q67.215 44.2074 67.3708 44.3091Q67.6014 44.4597 67.7444 44.6699Q67.8257 44.7893 67.8788 44.928Q67.9178 45.0302 67.9821 45.1129Q68.0529 45.204 68.1542 45.2714Q68.2464 45.3328 68.3478 45.364Q68.4534 45.3965 68.5691 45.3965Q68.6303 45.3965 68.6899 45.3868Q68.7589 45.3755 68.8257 45.3513Q68.9761 45.2965 69.0826 45.1955Q69.1786 45.1045 69.2389 44.9758Q69.303 44.8391 69.3078 44.7001Q69.3126 44.5624 69.2592 44.4227Q69.206 44.2835 69.1379 44.152Q69.0112 43.9071 68.833 43.6888Q68.756 43.5945 68.6714 43.5075Q68.4623 43.2926 68.2067 43.1229Q68.0651 43.0289 67.9147 42.9523Q67.6841 42.8349 67.4326 42.7585Q67.2374 42.6993 67.0379 42.6672ZM69.1658 44.4584C68.7705 43.4243 67.724 42.7295 66.5621 42.7295C65.4001 42.7295 64.3538 43.4243 63.9583 44.4584C63.8354 44.7798 64.003 45.1375 64.3326 45.2573C64.6623 45.3773 65.0291 45.2137 65.1519 44.8923C65.3625 44.3416 65.9292 43.9716 66.562 43.9716C67.1948 43.9716 67.7616 44.3416 67.9722 44.8923C68.0677 45.1422 68.3107 45.2966 68.5691 45.2966C68.643 45.2966 68.7182 45.2839 68.7915 45.2573C69.1211 45.1375 69.2887 44.7797 69.1658 44.4584Z" fill="#FFFFFF" fill-opacity="1.000000" fill-rule="evenodd"/>
	<path id="Vector" d="M52.9002 46.1888L52.9002 43.0153C54.1497 43.1633 55.0233 43.7278 55.0233 44.2405C55.0233 44.5835 55.3085 44.8615 55.6603 44.8615C56.0121 44.8615 56.2972 44.5835 56.2972 44.2405C56.2972 42.9708 54.8492 41.9501 52.9002 41.7656L52.9002 41.6943C52.9002 41.3513 52.615 41.0732 52.2632 41.0732C51.9114 41.0732 51.6263 41.3513 51.6263 41.6943L51.6263 41.7656C49.6772 41.9501 48.2292 42.9708 48.2292 44.2405C48.2292 46.0539 50.0667 46.7084 51.6263 47.136L51.6263 50.3096C50.3768 50.1616 49.5032 49.5971 49.5032 49.0844C49.5032 48.7414 49.218 48.4634 48.8662 48.4634C48.5144 48.4634 48.2292 48.7414 48.2292 49.0844C48.2292 50.354 49.6772 51.3748 51.6263 51.5592L51.6263 51.6306C51.6263 51.9736 51.9114 52.2516 52.2632 52.2516C52.615 52.2516 52.9002 51.9736 52.9002 51.6306L52.9002 51.5592C54.8492 51.3748 56.2972 50.354 56.2972 49.0844C56.2972 47.2709 54.4596 46.6165 52.9002 46.1888ZM51.6263 45.8358C50.0575 45.356 49.5032 44.9199 49.5032 44.2405C49.5032 43.7278 50.3768 43.1633 51.6263 43.0153L51.6263 45.8358ZM52.9002 50.3097L52.9002 47.4892C54.4689 47.9689 55.0233 48.405 55.0233 49.0845C55.0233 49.5972 54.1496 50.1616 52.9002 50.3097Z" fill="#FFFFFF" fill-opacity="1.000000" fill-rule="nonzero"/>
	<path id="Vector" d="M52.9002 43.116L52.9002 46.1888C54.4596 46.6165 56.2972 47.2709 56.2972 49.0844C56.2972 50.354 54.8492 51.3748 52.9002 51.5592L52.9002 51.6306C52.9002 51.9736 52.615 52.2516 52.2632 52.2516C51.9114 52.2516 51.6263 51.9736 51.6263 51.6306L51.6263 51.5592C49.6772 51.3748 48.2292 50.354 48.2292 49.0844C48.2292 48.7414 48.5144 48.4634 48.8662 48.4634C49.218 48.4634 49.5032 48.7414 49.5032 49.0844C49.5032 49.5833 50.3304 50.1312 51.5263 50.2968C51.5593 50.3013 51.5927 50.3056 51.6263 50.3096L51.6263 47.136C50.0667 46.7084 48.2292 46.0539 48.2292 44.2405C48.2292 42.9708 49.6772 41.9501 51.6263 41.7656L51.6263 41.6943C51.6263 41.3513 51.9114 41.0732 52.2632 41.0732C52.615 41.0732 52.9002 41.3513 52.9002 41.6943L52.9002 41.7656C54.8492 41.9501 56.2972 42.9708 56.2972 44.2405C56.2972 44.5835 56.0121 44.8615 55.6603 44.8615C55.3085 44.8615 55.0233 44.5835 55.0233 44.2405C55.0233 43.7415 54.1961 43.1937 53.0002 43.0281C52.9671 43.0235 52.9338 43.0192 52.9002 43.0153L52.9002 43.116ZM53.0002 43.129L53.0002 46.1127Q53.6667 46.2981 54.1246 46.4733Q54.7853 46.7261 55.2396 47.0342Q55.9495 47.5156 56.224 48.1775Q56.3972 48.595 56.3972 49.0844Q56.3972 49.2289 56.3742 49.3698Q56.3183 49.7121 56.1263 50.0322Q55.8672 50.4642 55.3881 50.8099Q54.9165 51.1501 54.2859 51.3678Q53.6839 51.5756 53 51.6496Q52.9969 51.7831 52.9499 51.8987Q52.8958 52.0318 52.7834 52.1413Q52.6797 52.2424 52.5555 52.2949Q52.4213 52.3516 52.2632 52.3516Q52.1051 52.3516 51.971 52.2949Q51.8467 52.2424 51.743 52.1413Q51.6307 52.0318 51.5766 51.8987Q51.5296 51.7831 51.5265 51.6496Q50.8426 51.5756 50.2406 51.3678Q49.6099 51.1501 49.1384 50.8099Q48.6593 50.4642 48.4002 50.0322Q48.2082 49.7122 48.1523 49.3699Q48.1292 49.229 48.1292 49.0844Q48.1292 48.9401 48.1796 48.8163Q48.2337 48.6832 48.346 48.5737Q48.4497 48.4725 48.5739 48.42Q48.7081 48.3633 48.8662 48.3633Q49.0243 48.3633 49.1584 48.42Q49.2827 48.4725 49.3864 48.5737Q49.4987 48.6832 49.5528 48.8163Q49.6031 48.9401 49.6031 49.0844Q49.6031 49.2405 49.7374 49.409Q49.8802 49.5883 50.1474 49.7479Q50.427 49.9149 50.7976 50.0325Q51.1415 50.1416 51.5263 50.1958L51.5263 47.2121Q50.8598 47.0268 50.4018 46.8516Q49.7411 46.5988 49.2868 46.2906Q48.577 45.8093 48.3024 45.1473Q48.1292 44.7298 48.1292 44.2405Q48.1292 44.0959 48.1523 43.955Q48.2082 43.6127 48.4002 43.2927Q48.6593 42.8607 49.1384 42.515Q49.6099 42.1747 50.2406 41.9571Q50.8426 41.7493 51.5265 41.6752Q51.5296 41.5418 51.5766 41.4261Q51.6307 41.293 51.743 41.1835Q51.8467 41.0824 51.971 41.0299Q52.1051 40.9733 52.2632 40.9733Q52.4213 40.9733 52.5555 41.0299Q52.6797 41.0824 52.7834 41.1835Q52.8958 41.293 52.9499 41.4261Q52.9969 41.5418 53 41.6752Q53.6839 41.7493 54.2859 41.9571Q54.9165 42.1747 55.3881 42.515Q55.8672 42.8607 56.1263 43.2927Q56.3182 43.6127 56.3742 43.955Q56.3972 44.0959 56.3972 44.2405Q56.3972 44.3848 56.3469 44.5085Q56.2928 44.6417 56.1805 44.7512Q56.0768 44.8523 55.9525 44.9048Q55.8184 44.9615 55.6603 44.9615Q55.5022 44.9615 55.368 44.9048Q55.2438 44.8523 55.1401 44.7512Q55.0278 44.6417 54.9736 44.5085Q54.9233 44.3848 54.9233 44.2405Q54.9233 44.0844 54.7891 43.9158Q54.6462 43.7365 54.3791 43.577Q54.0994 43.41 53.7288 43.2924Q53.3849 43.1832 53.0002 43.129ZM49.6862 44.6295Q49.6031 44.4547 49.6031 44.2405Q49.6031 44.0844 49.7374 43.9158Q49.8802 43.7365 50.1474 43.577Q50.427 43.41 50.7976 43.2924Q51.1415 43.1832 51.5263 43.129L51.5263 45.6999Q50.4778 45.3678 50.0369 45.0333Q49.8074 44.8593 49.7026 44.662Q49.694 44.6459 49.6862 44.6295ZM51.6263 45.7311L51.6263 45.8358C51.5925 45.8254 51.5591 45.8151 51.5263 45.8047C50.0339 45.337 49.5032 44.9053 49.5032 44.2405C49.5032 43.7415 50.3304 43.1937 51.5263 43.0281C51.5593 43.0235 51.5927 43.0192 51.6263 43.0153L51.6263 45.7311ZM52.9002 47.5938L52.9002 50.3097C52.9338 50.3057 52.9671 50.3014 53.0002 50.2969C54.196 50.1313 55.0233 49.5834 55.0233 49.0845C55.0233 48.4197 54.4926 47.9879 53.0002 47.5201C52.9673 47.5098 52.934 47.4995 52.9002 47.4892L52.9002 47.5938ZM53.0002 47.6251L53.0002 50.1959Q53.3849 50.1417 53.7288 50.0325Q54.0994 49.915 54.379 49.748Q54.6462 49.5884 54.7891 49.4091Q54.9233 49.2405 54.9233 49.0845Q54.9233 48.8702 54.8402 48.6955Q54.8324 48.679 54.8239 48.663Q54.719 48.4657 54.4896 48.2916Q54.0486 47.9571 53.0002 47.6251Z" fill="#FFFFFF" fill-opacity="1.000000" fill-rule="evenodd"/>
</svg>
