<svg width="333.752808" height="94.000000" viewBox="0 0 333.753 94" fill="none" xmlns="http://www.w3.org/2000/svg" xmlns:xlink="http://www.w3.org/1999/xlink">
	<desc>
			Created with Pixso.
	</desc>
	<defs>
		<filter id="filter_1_11287_dd" x="0.000000" y="0.000000" width="333.752808" height="94.000000" filterUnits="userSpaceOnUse" color-interpolation-filters="sRGB">
			<feFlood flood-opacity="0" result="BackgroundImageFix"/>
			<feColorMatrix in="SourceAlpha" type="matrix" values="0 0 0 0 0 0 0 0 0 0 0 0 0 0 0 0 0 0 127 0" result="hardAlpha"/>
			<feOffset dx="5" dy="5"/>
			<feGaussianBlur stdDeviation="6.66667"/>
			<feComposite in2="hardAlpha" operator="out" k2="-1" k3="1"/>
			<feColorMatrix type="matrix" values="0 0 0 0 0.8902 0 0 0 0 0.72157 0 0 0 0 0.45098 0 0 0 0.5 0"/>
			<feBlend mode="normal" in2="BackgroundImageFix" result="effect_dropShadow_1"/>
			<feBlend mode="normal" in="SourceGraphic" in2="effect_dropShadow_1" result="shape"/>
		</filter>
	</defs>
	<g filter="url(#filter_1_11287_dd)">
		<rect id="Rectangle 4.22" x="15.000000" y="15.000000" width="293.752808" height="54.000000" fill="#E3B873" fill-opacity="1.000000"/>
	</g>
	<path id="40 m2" d="M84.0991 48.0703L84.0991 47.8171L85.2861 47.4768L85.2861 44.9243L80.4426 44.9243L80.1023 44.4138L86.4773 36.001L88.0918 36.001L88.0918 44.1606L89.8765 44.1606L89.8765 44.9243L88.0918 44.9243L88.0918 47.4768L89.283 47.8171L89.283 48.0703L84.0991 48.0703ZM81.0361 44.1606L85.2861 44.1606L85.2861 38.5493L81.0361 44.1606ZM95.6566 48.3235Q94.2787 48.3235 93.1581 47.593Q92.0375 46.8625 91.3817 45.4597Q90.726 44.0569 90.726 42.1187Q90.726 40.1804 91.3817 38.7817Q92.0375 37.3789 93.1581 36.6484Q94.2787 35.9138 95.6566 35.9138Q97.0346 35.9138 98.1552 36.6484Q99.2799 37.3789 99.9315 38.7817Q100.587 40.1804 100.587 42.1187Q100.587 44.0569 99.9315 45.4597Q99.2799 46.8625 98.1552 47.593Q97.0346 48.3235 95.6566 48.3235ZM95.6566 47.9873Q97.6115 47.9873 97.6115 42.1187Q97.6115 36.2542 95.6566 36.2542Q93.7018 36.2542 93.7018 42.1187Q93.7018 47.9873 95.6566 47.9873ZM108.49 38.2961L108.49 47.3066L109.852 47.8171L109.852 48.0703L106.623 48.0703L106.623 47.8171L107.984 47.3066L107.984 36.6816L106.963 36.4243L106.963 36.1711L109.088 36.1711Q109.972 36.1711 110.491 36.5364Q111.01 36.9016 111.383 37.6155L115.09 44.7043L117.928 37.6155Q118.215 36.8684 118.709 36.5198Q119.203 36.1711 120.224 36.1711L122.008 36.1711L122.008 36.4243L120.987 36.6816L120.987 47.5598L122.008 47.8171L122.008 48.0703L117.161 48.0703L117.161 47.8171L118.182 47.5598L118.182 38.2961L114.189 48.2405L113.678 48.2405L108.49 38.2961ZM123.368 47.3066Q123.368 46.3022 123.766 45.4805Q124.165 44.6545 124.742 44.0444Q125.323 43.4302 126.256 42.5959Q127.124 41.8323 127.618 41.3135Q128.112 40.7947 128.452 40.1431Q128.792 39.4873 128.792 38.7195Q128.792 37.5989 128.245 36.9722Q127.701 36.3413 126.833 36.3413Q126.344 36.3413 125.833 36.4783L125.476 36.5945L125.476 39.3171L125.256 39.3669Q124.982 39.4001 124.796 39.4001Q124.219 39.4001 123.87 39.0515Q123.521 38.7029 123.521 38.126Q123.521 37.5823 123.936 37.0718Q124.351 36.5613 125.177 36.2375Q126.003 35.9138 127.174 35.9138Q129.469 35.9138 130.573 36.8352Q131.681 37.7524 131.681 39.4001Q131.681 40.4377 131.146 41.1848Q130.61 41.9319 129.834 42.4258Q129.062 42.9197 127.771 43.5464Q126.684 44.0735 126.012 44.4761Q125.339 44.8745 124.771 45.4348Q124.202 45.9951 123.961 46.709L130.253 46.709Q130.37 45.7917 130.83 45.1816Q131.017 44.8911 131.274 44.6711L131.781 44.6711L131.781 48.0703L123.368 48.0703L123.368 47.3066Z" fill="#FFFFFF" fill-opacity="1.000000" fill-rule="evenodd"/>
	<path id="Vector 2 (Stroke)" d="M35.2503 26.3819C35.2503 26.171 35.4285 26 35.6484 26L64.3115 26C64.5314 26 64.7096 26.171 64.7096 26.3819L64.7096 54.004C64.7096 54.2148 64.5314 54.3858 64.3115 54.3858C64.0916 54.3858 63.9134 54.2148 63.9134 54.004L63.9134 26.7637L35.6484 26.7637C35.4285 26.7637 35.2503 26.5928 35.2503 26.3819Z" fill="#FFFFFF" fill-opacity="1.000000" fill-rule="evenodd"/>
	<path id="Vector 2 (Stroke)" d="M35.2503 26.3819C35.2503 26.5928 35.4285 26.7637 35.6484 26.7637L63.9134 26.7637L63.9134 54.004C63.9134 54.2148 64.0916 54.3858 64.3115 54.3858C64.5314 54.3858 64.7096 54.2148 64.7096 54.004L64.7096 26.3819C64.7096 26.171 64.5314 26 64.3115 26L35.6484 26C35.4285 26 35.2503 26.171 35.2503 26.3819Z" stroke="#FFFFFF" stroke-opacity="1.000000" stroke-width="0.500000" stroke-linejoin="round"/>
	<path id="Arrow (Stroke)" d="M32.4803 31.6577L34.9938 29.1442C35.1481 28.99 35.3982 28.99 35.5524 29.1442L38.0659 31.6577C38.2202 31.812 38.2202 32.0621 38.0659 32.2163C37.9117 32.3705 37.6616 32.3705 37.5073 32.2163L35.6681 30.377L35.6681 54.4375L34.8782 54.4375L34.8782 30.377L33.0389 32.2163C32.8847 32.3705 32.6346 32.3705 32.4803 32.2163C32.3261 32.0621 32.3261 31.812 32.4803 31.6577Z" fill="#FFFFFF" fill-opacity="1.000000" fill-rule="evenodd"/>
	<path id="Arrow (Stroke)" d="M34.8171 28.9675L32.3036 31.481Q32.2091 31.5754 32.1619 31.6895Q32.1147 31.8035 32.1147 31.937Q32.1147 32.0706 32.1619 32.1846Q32.2091 32.2986 32.3036 32.3931Q32.3981 32.4875 32.5121 32.5347Q32.6261 32.582 32.7596 32.582Q32.8932 32.582 33.0072 32.5347Q33.1212 32.4875 33.2157 32.3931L34.6282 30.9806L34.6282 54.6875L35.9181 54.6875L35.9181 30.9806L37.3306 32.3931Q37.425 32.4875 37.5391 32.5347Q37.6531 32.582 37.7866 32.582Q37.9202 32.582 38.0342 32.5347Q38.1483 32.4875 38.2427 32.3931Q38.3372 32.2986 38.3843 32.1846Q38.4316 32.0706 38.4316 31.937Q38.4316 31.8034 38.3843 31.6894Q38.3372 31.5754 38.2427 31.481L35.7292 28.9675Q35.6348 28.873 35.5207 28.8258Q35.4067 28.7786 35.2731 28.7786Q35.1396 28.7786 35.0256 28.8258Q34.9116 28.873 34.8171 28.9675ZM35.6681 30.7306L35.6681 30.377L37.5073 32.2163C37.6616 32.3705 37.9117 32.3705 38.0659 32.2163C38.2202 32.0621 38.2202 31.812 38.0659 31.6577L35.5524 29.1442C35.3982 28.99 35.1481 28.99 34.9938 29.1442L32.4803 31.6577C32.3261 31.812 32.3261 32.0621 32.4803 32.2163C32.6346 32.3705 32.8847 32.3705 33.0389 32.2163L34.8782 30.377L34.8782 54.4375L35.6681 54.4375L35.6681 30.7306Z" fill="#FFFFFF" fill-opacity="1.000000" fill-rule="evenodd"/>
	<path id="Arrow (Stroke)" d="M57.7758 51.644L60.3024 54.1575C60.4575 54.3117 60.4575 54.5618 60.3024 54.7161L57.7758 57.2296C57.6208 57.3838 57.3694 57.3838 57.2144 57.2296C57.0593 57.0753 57.0593 56.8253 57.2144 56.671L59.0632 54.8317L34.8772 54.8317L34.8772 54.0418L59.0632 54.0418L57.2144 52.2026C57.0593 52.0483 57.0593 51.7982 57.2144 51.644C57.3694 51.4897 57.6208 51.4897 57.7758 51.644Z" fill="#FFFFFF" fill-opacity="1.000000" fill-rule="evenodd"/>
	<path id="Arrow (Stroke)" d="M60.4788 53.9803L57.9521 51.4667Q57.8579 51.373 57.7444 51.3259Q57.6296 51.2783 57.4951 51.2783Q57.3605 51.2783 57.2457 51.3259Q57.1322 51.373 57.038 51.4667Q56.9425 51.5618 56.895 51.6766Q56.848 51.7902 56.848 51.9233Q56.848 52.0563 56.895 52.1699Q56.9425 52.2848 57.038 52.3798L58.4574 53.7918L34.6272 53.7918L34.6272 55.0817L58.4574 55.0817L57.038 56.4938Q56.9425 56.5887 56.895 56.7036Q56.848 56.8173 56.848 56.9503Q56.848 57.0833 56.895 57.1969Q56.9425 57.3118 57.038 57.4068Q57.1322 57.5005 57.2457 57.5476Q57.3605 57.5952 57.4951 57.5952Q57.6296 57.5952 57.7444 57.5476Q57.8579 57.5005 57.9521 57.4068L60.4788 54.8933Q60.5742 54.7983 60.6217 54.6834Q60.6687 54.5698 60.6687 54.4368Q60.6687 54.3037 60.6217 54.1901Q60.5742 54.0753 60.4788 53.9803ZM58.7087 54.8317L59.0632 54.8317L58.8119 55.0817L57.2144 56.671C57.0593 56.8253 57.0593 57.0753 57.2144 57.2296C57.3694 57.3838 57.6208 57.3838 57.7758 57.2296L60.3024 54.7161C60.4575 54.5618 60.4575 54.3117 60.3024 54.1575L57.7758 51.644C57.6208 51.4897 57.3694 51.4897 57.2144 51.644C57.0593 51.7982 57.0593 52.0483 57.2144 52.2026L58.8119 53.7918L59.0632 54.0418L34.8772 54.0418L34.8772 54.8317L58.7087 54.8317Z" fill="#FFFFFF" fill-opacity="1.000000" fill-rule="evenodd"/>
	<path id="Vector 3 (Stroke)" d="M46.1625 26.1157C46.3168 26.2699 46.3168 26.52 46.1625 26.6743L41.423 31.4137C41.2688 31.568 41.0187 31.568 40.8644 31.4137C40.7102 31.2595 40.7102 31.0094 40.8644 30.8552L45.6039 26.1157C45.7582 25.9614 46.0082 25.9614 46.1625 26.1157Z" fill="#FFFFFF" fill-opacity="1.000000" fill-rule="evenodd"/>
	<path id="Vector 3 (Stroke)" d="M46.1625 26.1157C46.0082 25.9614 45.7582 25.9614 45.6039 26.1157L40.8644 30.8552C40.7102 31.0094 40.7102 31.2595 40.8644 31.4137C41.0187 31.568 41.2688 31.568 41.423 31.4137L46.1625 26.6743C46.3168 26.52 46.3168 26.2699 46.1625 26.1157Z" stroke="#FFFFFF" stroke-opacity="1.000000" stroke-width="0.500000" stroke-linejoin="round"/>
	<path id="Vector 3.6 (Stroke)" d="M64.4623 44.9423C64.6165 45.0966 64.6165 45.3467 64.4623 45.5009L60.1177 49.8455C59.9635 49.9997 59.7134 49.9997 59.5591 49.8455C59.4049 49.6912 59.4049 49.4411 59.5591 49.2869L63.9037 44.9423C64.0579 44.7881 64.308 44.7881 64.4623 44.9423Z" fill="#FFFFFF" fill-opacity="1.000000" fill-rule="evenodd"/>
	<path id="Vector 3.6 (Stroke)" d="M64.4623 44.9423C64.308 44.7881 64.0579 44.7881 63.9037 44.9423L59.5591 49.2869C59.4049 49.4411 59.4049 49.6912 59.5591 49.8455C59.7134 49.9997 59.9635 49.9997 60.1177 49.8455L64.4623 45.5009C64.6165 45.3467 64.6165 45.0966 64.4623 44.9423Z" stroke="#FFFFFF" stroke-opacity="1.000000" stroke-width="0.500000" stroke-linejoin="round"/>
	<path id="Vector 3.1 (Stroke)" d="M52.0851 26.1139C52.2403 26.2672 52.2419 26.5172 52.0886 26.6724L41.8198 37.073C41.6665 37.2282 41.4164 37.2298 41.2612 37.0765C41.106 36.9233 41.1044 36.6732 41.2576 36.518L51.5266 26.1175C51.6798 25.9622 51.9299 25.9606 52.0851 26.1139Z" fill="#FFFFFF" fill-opacity="1.000000" fill-rule="evenodd"/>
	<path id="Vector 3.1 (Stroke)" d="M52.0851 26.1139C51.9299 25.9606 51.6798 25.9622 51.5266 26.1175L41.2576 36.518C41.1044 36.6732 41.106 36.9233 41.2612 37.0765C41.4164 37.2298 41.6665 37.2282 41.8198 37.073L52.0886 26.6724C52.2419 26.5172 52.2403 26.2672 52.0851 26.1139Z" stroke="#FFFFFF" stroke-opacity="1.000000" stroke-width="0.500000" stroke-linejoin="round"/>
	<path id="Vector 3.5 (Stroke)" d="M64.5938 38.3593C64.748 38.5135 64.748 38.7637 64.5938 38.9179L54.5883 48.9235C54.434 49.0777 54.1839 49.0777 54.0297 48.9235C53.8754 48.7692 53.8754 48.5192 54.0297 48.3649L64.0353 38.3593C64.1895 38.2051 64.4396 38.2051 64.5938 38.3593Z" fill="#FFFFFF" fill-opacity="1.000000" fill-rule="evenodd"/>
	<path id="Vector 3.5 (Stroke)" d="M64.5938 38.3593C64.4396 38.2051 64.1895 38.2051 64.0353 38.3593L54.0297 48.3649C53.8754 48.5192 53.8754 48.7692 54.0297 48.9235C54.1839 49.0777 54.434 49.0777 54.5883 48.9235L64.5938 38.9179C64.748 38.7637 64.748 38.5135 64.5938 38.3593Z" stroke="#FFFFFF" stroke-opacity="1.000000" stroke-width="0.500000" stroke-linejoin="round"/>
	<path id="Vector 3.2 (Stroke)" d="M58.4084 26.2498C58.5614 26.4053 58.5594 26.6553 58.4039 26.8083L41.9474 43.0016C41.7919 43.1545 41.5418 43.1525 41.3889 42.9971C41.2358 42.8416 41.2379 42.5916 41.3933 42.4385L57.8499 26.2453C58.0054 26.0923 58.2554 26.0943 58.4084 26.2498Z" fill="#FFFFFF" fill-opacity="1.000000" fill-rule="evenodd"/>
	<path id="Vector 3.2 (Stroke)" d="M58.4084 26.2498C58.2554 26.0943 58.0054 26.0923 57.8499 26.2453L41.3933 42.4385C41.2379 42.5916 41.2358 42.8416 41.3889 42.9971C41.5418 43.1525 41.7919 43.1546 41.9474 43.0016L58.4039 26.8083C58.5594 26.6553 58.5614 26.4053 58.4084 26.2498Z" stroke="#FFFFFF" stroke-opacity="1.000000" stroke-width="0.500000" stroke-linejoin="round"/>
	<path id="Vector 3.4 (Stroke)" d="M64.5939 32.1718C64.7481 32.326 64.7481 32.5762 64.5939 32.7304L48.0057 49.3186C47.8514 49.4728 47.6013 49.4728 47.4471 49.3186C47.2928 49.1644 47.2928 48.9143 47.4471 48.7601L64.0353 32.1718C64.1896 32.0176 64.4396 32.0176 64.5939 32.1718Z" fill="#FFFFFF" fill-opacity="1.000000" fill-rule="evenodd"/>
	<path id="Vector 3.4 (Stroke)" d="M64.5939 32.1718C64.4396 32.0176 64.1896 32.0176 64.0353 32.1718L47.4471 48.7601C47.2928 48.9143 47.2928 49.1644 47.4471 49.3186C47.6013 49.4728 47.8514 49.4728 48.0057 49.3186L64.5939 32.7304C64.7481 32.5762 64.7481 32.326 64.5939 32.1718Z" stroke="#FFFFFF" stroke-opacity="1.000000" stroke-width="0.500000" stroke-linejoin="round"/>
	<path id="Vector 3.3 (Stroke)" d="M64.3306 26.2475C64.4849 26.4017 64.4849 26.6519 64.3306 26.8061L41.6864 49.4503C41.5322 49.6046 41.282 49.6046 41.1278 49.4503C40.9736 49.2961 40.9736 49.046 41.1278 48.8918L63.7721 26.2475C63.9263 26.0933 64.1764 26.0933 64.3306 26.2475Z" fill="#FFFFFF" fill-opacity="1.000000" fill-rule="evenodd"/>
	<path id="Vector 3.3 (Stroke)" d="M64.3306 26.2475C64.1764 26.0933 63.9263 26.0933 63.7721 26.2475L41.1278 48.8918C40.9736 49.046 40.9736 49.2961 41.1278 49.4503C41.282 49.6046 41.5322 49.6046 41.6864 49.4503L64.3306 26.8061C64.4849 26.6519 64.4849 26.4017 64.3306 26.2475Z" stroke="#FFFFFF" stroke-opacity="1.000000" stroke-width="0.500000" stroke-linejoin="round"/>
	<path id="48 DAYS" d="M219.147 48.1387L219.147 47.8855L220.334 47.5452L220.334 44.9927L215.491 44.9927L215.151 44.4822L221.526 36.0693L223.14 36.0693L223.14 44.229L224.925 44.229L224.925 44.9927L223.14 44.9927L223.14 47.5452L224.331 47.8855L224.331 48.1387L219.147 48.1387ZM216.084 44.229L220.334 44.229L220.334 38.6177L216.084 44.229ZM230.704 48.3918Q228.563 48.3918 227.467 47.5452Q226.371 46.6943 226.371 45.333Q226.371 44.3992 227.185 43.5234Q228.002 42.6477 229.177 42.2742Q228.052 41.6433 227.467 40.8879Q226.882 40.1326 226.882 39.0452Q226.882 37.6838 227.977 36.833Q229.073 35.9822 231.215 35.9822Q232.285 35.9822 233.091 36.3765Q233.9 36.7666 234.34 37.3975Q234.784 38.0242 234.784 38.7048Q234.784 39.5017 234.095 40.2529Q233.41 41 232.489 41.2532Q234.037 41.9338 234.834 42.8718Q235.635 43.8057 235.635 45.1628Q235.635 46.0469 235.091 46.7773Q234.547 47.5078 233.443 47.9519Q232.339 48.3918 230.704 48.3918ZM231.983 40.9128Q232.626 40.6265 233.024 40.0828Q233.427 39.5349 233.427 38.7048Q233.427 38.0906 233.128 37.5635Q232.829 37.0364 232.36 36.7251Q231.895 36.4097 231.385 36.4097Q230.654 36.4097 230.169 36.9783Q229.687 37.5469 229.687 38.5347Q229.687 39.8918 231.983 40.9128ZM230.534 47.9685Q231.626 47.9685 232.227 47.3667Q232.829 46.7607 232.829 45.6733Q232.829 44.8557 232.012 44.0256Q231.198 43.1914 229.858 42.6145Q228.903 42.9548 228.359 43.6272Q227.816 44.2954 227.816 45.333Q227.816 46.0469 228.181 46.6528Q228.546 47.2546 229.164 47.6116Q229.787 47.9685 230.534 47.9685ZM241.756 47.8855L242.777 47.6282L242.777 36.75L241.756 36.4927L241.756 36.2395L246.089 36.2395Q249.132 36.2395 250.754 37.8042Q252.381 39.3647 252.381 42.187Q252.381 45.0093 250.754 46.574Q249.132 48.1387 246.089 48.1387L241.756 48.1387L241.756 47.8855ZM246.089 47.7153Q247.671 47.7153 248.538 46.4329Q249.406 45.1462 249.406 42.187Q249.406 39.2319 248.538 37.9495Q247.671 36.6628 246.089 36.6628L245.579 36.6628L245.579 47.7153L246.089 47.7153ZM252.21 47.8855L253.572 47.375L258.245 36.0693L258.755 36.0693L263.599 47.6282L264.45 47.8855L264.45 48.1387L262.412 48.1387Q261.528 48.1387 260.963 47.7402Q260.403 47.3376 260.133 46.6943L259.266 44.6523L255.203 44.6523L254.082 47.375L255.356 47.8855L255.356 48.1387L252.21 48.1387L252.21 47.8855ZM255.373 44.229L259.096 44.229L257.224 39.759L255.373 44.229ZM266.237 47.8855L267.254 47.6282L267.254 43.7185L263.771 36.75L262.921 36.4927L262.921 36.2395L265.046 36.2395Q265.93 36.2395 266.465 36.613Q267 36.9866 267.341 37.6838L269.856 42.6975L272.442 37.0032L271.167 36.4927L271.167 36.2395L274.396 36.2395L274.396 36.4927L273.035 37.0032L270.059 43.5483L270.059 47.6282L271.08 47.8855L271.08 48.1387L266.237 48.1387L266.237 47.8855ZM278.729 48.3918Q277.526 48.3918 276.471 47.8481Q275.994 47.6116 275.67 47.2878Q275.434 47.678 275.077 47.9851Q274.77 48.2051 274.737 48.2217L274.309 48.2217L274.309 44.9927L274.99 44.9927Q275.247 45.8269 275.704 46.491Q276.741 47.9685 278.389 47.9685Q279.36 47.9685 279.937 47.3916Q280.514 46.8147 280.514 45.8435Q280.514 45.2832 280.182 44.8433Q279.854 44.3992 279.36 44.0588Q278.866 43.7185 277.982 43.208Q276.862 42.5813 276.164 42.0708Q275.467 41.5603 274.973 40.7883Q274.479 40.0122 274.479 38.958Q274.479 38.1238 274.948 37.4556Q275.417 36.7832 276.351 36.3848Q277.285 35.9822 278.646 35.9822Q279.63 35.9822 280.618 36.5466Q280.991 36.75 281.365 37.0903Q281.655 36.6462 281.962 36.3931Q282.265 36.1689 282.299 36.1523L282.726 36.1523L282.726 39.3855L282.045 39.3855Q281.825 38.5679 281.381 37.9038Q280.975 37.2605 280.369 36.8372Q279.767 36.4097 278.987 36.4097Q278.322 36.4097 277.845 36.9368Q277.372 37.4639 277.372 38.2773Q277.372 38.9082 277.737 39.4104Q278.102 39.9126 278.638 40.2861Q279.173 40.6597 280.091 41.1868Q281.161 41.7969 281.825 42.2742Q282.489 42.7515 282.946 43.457Q283.407 44.1626 283.407 45.0798Q283.407 45.9971 282.88 46.7524Q282.352 47.5078 281.298 47.9519Q280.244 48.3918 278.729 48.3918Z" fill="#FFFFFF" fill-opacity="1.000000" fill-rule="evenodd"/>
	<path id="Vector 2" d="M150.09 69.035L150.09 15" stroke="#FFFFFF" stroke-opacity="1.000000" stroke-width="0.750000"/>
	<path id="Vector" d="M191.6 28.1996C191.337 26.9464 190.196 26 188.831 26C188.519 26 188.266 26.2458 188.266 26.5499C188.266 26.854 188.519 27.0999 188.831 27.0999C189.766 27.0999 190.527 27.84 190.527 28.7496C190.527 29.6591 189.766 30.3994 188.831 30.3994C188.519 30.3994 188.266 30.6451 188.266 30.9492C188.266 31.2534 188.519 31.4991 188.831 31.4991C190.196 31.4991 191.337 30.5527 191.6 29.2995L199.005 29.2995L199.005 34.2487L168.484 34.2487L168.484 29.2995L176.397 29.2995L178.093 29.2995C178.405 29.2995 178.658 29.0537 178.658 28.7496C178.658 28.4455 178.405 28.1996 178.093 28.1996L177.066 28.1996C177.3 27.5607 177.922 27.0999 178.658 27.0999C179.593 27.0999 180.353 27.84 180.353 28.7496C180.353 29.6591 179.593 30.3994 178.658 30.3994C178.346 30.3994 178.093 30.6451 178.093 30.9492C178.093 31.2534 178.346 31.4991 178.658 31.4991C180.216 31.4991 181.484 30.2657 181.484 28.7496C181.484 27.2335 180.216 26 178.658 26C177.293 26 176.152 26.9464 175.889 28.1996L167.354 28.1996L167.354 35.3486L167.354 57.3452L200.135 57.3452L200.135 35.3486L200.135 28.1996L191.6 28.1996ZM199.005 56.2454L168.484 56.2454L168.484 35.3486L199.005 35.3486L199.005 56.2454Z" fill="#FFFFFF" fill-opacity="1.000000" fill-rule="nonzero"/>
	<path id="Vector" d="M182.049 27.0999C182.984 27.0999 183.745 27.84 183.745 28.7496C183.745 29.6591 182.984 30.3994 182.049 30.3994C181.737 30.3994 181.484 30.6451 181.484 30.9492C181.484 31.2534 181.737 31.4991 182.049 31.4991C183.607 31.4991 184.875 30.2657 184.875 28.7496C184.875 27.2335 183.607 26 182.049 26C181.737 26 181.484 26.2458 181.484 26.5499C181.484 26.854 181.737 27.0999 182.049 27.0999Z" fill="#FFFFFF" fill-opacity="1.000000" fill-rule="nonzero"/>
	<path id="Vector" d="M185.44 27.0999C186.375 27.0999 187.136 27.84 187.136 28.7496C187.136 29.6591 186.375 30.3994 185.44 30.3994C185.128 30.3994 184.875 30.6451 184.875 30.9492C184.875 31.2534 185.128 31.4991 185.44 31.4991C186.998 31.4991 188.266 30.2657 188.266 28.7496C188.266 27.2335 186.998 26 185.44 26C185.128 26 184.875 26.2458 184.875 26.5499C184.875 26.854 185.128 27.0999 185.44 27.0999Z" fill="#FFFFFF" fill-opacity="1.000000" fill-rule="nonzero"/>
	<path id="Vector" d="M172.441 39.7473L184.875 39.7473C185.187 39.7473 185.44 39.5015 185.44 39.1974C185.44 38.8932 185.187 38.6475 184.875 38.6475L172.441 38.6475C172.129 38.6475 171.876 38.8932 171.876 39.1974C171.876 39.5015 172.129 39.7473 172.441 39.7473Z" fill="#FFFFFF" fill-opacity="1.000000" fill-rule="nonzero"/>
	<path id="Vector" d="M195.048 47.4468L186.571 47.4468C186.259 47.4468 186.005 47.6926 186.005 47.9967C186.005 48.3008 186.259 48.5466 186.571 48.5466L195.048 48.5466C195.36 48.5466 195.614 48.3008 195.614 47.9967C195.614 47.6926 195.36 47.4468 195.048 47.4468Z" fill="#FFFFFF" fill-opacity="1.000000" fill-rule="nonzero"/>
	<path id="Vector" d="M172.441 44.1472L178.093 44.1472C178.405 44.1472 178.658 43.9014 178.658 43.5973C178.658 43.2932 178.405 43.0474 178.093 43.0474L172.441 43.0474C172.129 43.0474 171.876 43.2932 171.876 43.5973C171.876 43.9014 172.129 44.1472 172.441 44.1472Z" fill="#FFFFFF" fill-opacity="1.000000" fill-rule="nonzero"/>
	<path id="Vector" d="M195.048 51.8457L189.397 51.8457C189.085 51.8457 188.831 52.0915 188.831 52.3956C188.831 52.6997 189.085 52.9456 189.397 52.9456L195.048 52.9456C195.36 52.9456 195.614 52.6997 195.614 52.3956C195.614 52.0915 195.36 51.8457 195.048 51.8457Z" fill="#FFFFFF" fill-opacity="1.000000" fill-rule="nonzero"/>
	<path id="Vector" d="M183.179 43.5973C183.179 43.9014 183.433 44.1472 183.745 44.1472L192.222 44.1472C192.534 44.1472 192.788 43.9014 192.788 43.5973C192.788 43.2932 192.534 43.0474 192.222 43.0474L183.745 43.0474C183.433 43.0474 183.179 43.2932 183.179 43.5973Z" fill="#FFFFFF" fill-opacity="1.000000" fill-rule="nonzero"/>
	<path id="Vector" d="M181.32 43.9882C181.422 43.8837 181.484 43.7407 181.484 43.5977C181.484 43.4542 181.422 43.3112 181.32 43.2073C181.111 43.0038 180.727 43.0038 180.517 43.2073C180.416 43.3112 180.354 43.4542 180.354 43.5977C180.354 43.7407 180.416 43.8837 180.517 43.9882C180.625 44.0921 180.772 44.1476 180.919 44.1476C181.066 44.1476 181.213 44.0921 181.32 43.9882Z" fill="#FFFFFF" fill-opacity="1.000000" fill-rule="nonzero"/>
	<path id="Vector" d="M174.702 47.9967C174.702 48.3008 174.955 48.5466 175.267 48.5466L183.745 48.5466C184.057 48.5466 184.31 48.3008 184.31 47.9967C184.31 47.6926 184.057 47.4468 183.745 47.4468L175.267 47.4468C174.955 47.4468 174.702 47.6926 174.702 47.9967Z" fill="#FFFFFF" fill-opacity="1.000000" fill-rule="nonzero"/>
	<path id="Vector" d="M172.441 48.5469C172.588 48.5469 172.735 48.4864 172.842 48.3874C172.944 48.2829 173.006 48.14 173.006 47.9969C173.006 47.8535 172.944 47.7104 172.842 47.612C172.633 47.403 172.249 47.403 172.04 47.6065C171.938 47.7104 171.876 47.8535 171.876 47.9969C171.876 48.14 171.938 48.2829 172.04 48.3874C172.147 48.4864 172.288 48.5469 172.441 48.5469Z" fill="#FFFFFF" fill-opacity="1.000000" fill-rule="nonzero"/>
	<path id="Vector" d="M195.048 44.1476C195.195 44.1476 195.342 44.0921 195.45 43.9882C195.557 43.8837 195.614 43.7407 195.614 43.5977C195.614 43.4542 195.557 43.3112 195.45 43.2073C195.235 43.0038 194.856 43.0038 194.647 43.2073C194.545 43.3112 194.483 43.4542 194.483 43.5977C194.483 43.7407 194.545 43.8837 194.647 43.9882C194.755 44.0921 194.902 44.1476 195.048 44.1476Z" fill="#FFFFFF" fill-opacity="1.000000" fill-rule="nonzero"/>
	<path id="Vector" d="M186.571 51.8457L172.441 51.8457C172.129 51.8457 171.876 52.0915 171.876 52.3956C171.876 52.6997 172.129 52.9456 172.441 52.9456L186.571 52.9456C186.883 52.9456 187.136 52.6997 187.136 52.3956C187.136 52.0915 186.883 51.8457 186.571 51.8457Z" fill="#FFFFFF" fill-opacity="1.000000" fill-rule="nonzero"/>
</svg>
