<svg width="333.752808" height="94.000000" viewBox="0 0 333.753 94" fill="none" xmlns="http://www.w3.org/2000/svg" xmlns:xlink="http://www.w3.org/1999/xlink">
	<desc>
			Created with Pixso.
	</desc>
	<defs>
		<filter id="filter_1_11359_dd" x="0.000000" y="0.000000" width="333.752808" height="94.000000" filterUnits="userSpaceOnUse" color-interpolation-filters="sRGB">
			<feFlood flood-opacity="0" result="BackgroundImageFix"/>
			<feColorMatrix in="SourceAlpha" type="matrix" values="0 0 0 0 0 0 0 0 0 0 0 0 0 0 0 0 0 0 127 0" result="hardAlpha"/>
			<feOffset dx="5" dy="5"/>
			<feGaussianBlur stdDeviation="6.66667"/>
			<feComposite in2="hardAlpha" operator="out" k2="-1" k3="1"/>
			<feColorMatrix type="matrix" values="0 0 0 0 0.8902 0 0 0 0 0.72157 0 0 0 0 0.45098 0 0 0 0.5 0"/>
			<feBlend mode="normal" in2="BackgroundImageFix" result="effect_dropShadow_1"/>
			<feBlend mode="normal" in="SourceGraphic" in2="effect_dropShadow_1" result="shape"/>
		</filter>
	</defs>
	<g filter="url(#filter_1_11359_dd)">
		<rect id="Rectangle 4.22" x="15.000000" y="15.000000" width="293.752808" height="54.000000" fill="#E3B873" fill-opacity="1.000000"/>
	</g>
	<path id="90 м2" d="M84.7756 48.324Q83.7754 48.324 83.0159 47.9961Q82.2605 47.6641 81.8621 47.1536Q81.4636 46.6431 81.4636 46.116Q81.4636 45.5391 81.8123 45.1904Q82.1609 44.8418 82.7378 44.8418Q82.8748 44.8418 83.0076 44.8667Q83.1445 44.8916 83.1943 44.8916L83.4185 44.9248L83.4185 47.6475L83.7422 47.7803Q84.0452 47.9006 84.4353 47.9006Q85.2695 47.9006 85.7966 47.4607Q86.3237 47.0166 86.6101 45.8296Q86.9006 44.6384 86.9006 42.4595Q86.7512 42.7168 86.4275 42.97Q85.78 43.4805 84.9458 43.4805Q83.7048 43.4805 82.7793 43.0156Q81.8538 42.5466 81.3599 41.7124Q80.866 40.8782 80.866 39.824Q80.866 38.0061 81.9949 36.9602Q83.1279 35.9143 85.2031 35.9143Q87.3447 35.9143 88.5691 37.4458Q89.7935 38.9773 89.7935 42.1191Q89.7935 45.1821 88.457 46.7551Q87.1248 48.324 84.7756 48.324ZM85.2861 43.0571Q85.9834 43.0571 86.3984 42.3765Q86.8176 41.6958 86.8176 40.2515Q86.8176 38.0933 86.3486 37.176Q85.8838 36.2546 85.2031 36.2546Q84.8628 36.2546 84.5308 36.595Q84.1987 36.9353 83.9788 37.7031Q83.7588 38.4668 83.7588 39.6538Q83.7588 40.845 83.9871 41.6128Q84.2153 42.3765 84.564 42.7168Q84.9126 43.0571 85.2861 43.0571ZM96.3366 48.324Q94.9587 48.324 93.8381 47.5935Q92.7175 46.863 92.0617 45.4602Q91.406 44.0574 91.406 42.1191Q91.406 40.1809 92.0617 38.7822Q92.7175 37.3794 93.8381 36.6489Q94.9587 35.9143 96.3366 35.9143Q97.7146 35.9143 98.8352 36.6489Q99.9599 37.3794 100.612 38.7822Q101.267 40.1809 101.267 42.1191Q101.267 44.0574 100.612 45.4602Q99.9599 46.863 98.8352 47.5935Q97.7146 48.324 96.3366 48.324ZM96.3366 47.9878Q98.2915 47.9878 98.2915 42.1191Q98.2915 36.2546 96.3366 36.2546Q94.3818 36.2546 94.3818 42.1191Q94.3818 47.9878 96.3366 47.9878ZM109.17 38.2966L109.17 47.3071L110.532 47.8176L110.532 48.0708L107.303 48.0708L107.303 47.8176L108.664 47.3071L108.664 36.6821L107.473 36.4248L107.473 36.1716L109.768 36.1716Q110.652 36.1716 111.171 36.5369Q111.69 36.9021 112.063 37.616L115.77 44.7048L118.608 37.616Q118.895 36.8689 119.389 36.5203Q119.883 36.1716 120.904 36.1716L122.688 36.1716L122.688 36.4248L121.667 36.6821L121.667 47.5603L122.688 47.8176L122.688 48.0708L117.841 48.0708L117.841 47.8176L118.862 47.5603L118.862 38.2966L114.869 48.241L114.358 48.241L109.17 38.2966ZM124.048 47.3071Q124.048 46.3027 124.446 45.481Q124.845 44.655 125.422 44.0449Q126.003 43.4307 126.936 42.5964Q127.804 41.8328 128.298 41.314Q128.792 40.7952 129.132 40.1436Q129.472 39.4878 129.472 38.72Q129.472 37.5994 128.924 36.9727Q128.381 36.3418 127.513 36.3418Q127.024 36.3418 126.513 36.4788L126.156 36.595L126.156 39.3176L125.936 39.3674Q125.662 39.4006 125.476 39.4006Q124.899 39.4006 124.55 39.052Q124.201 38.7034 124.201 38.1265Q124.201 37.5828 124.616 37.0723Q125.031 36.5618 125.857 36.238Q126.683 35.9143 127.854 35.9143Q130.149 35.9143 131.253 36.8357Q132.361 37.7529 132.361 39.4006Q132.361 40.4382 131.826 41.1853Q131.29 41.9324 130.514 42.4263Q129.742 42.9202 128.451 43.5469Q127.364 44.074 126.692 44.4766Q126.019 44.875 125.451 45.4353Q124.882 45.9956 124.641 46.7095L130.933 46.7095Q131.049 45.7922 131.51 45.1821Q131.697 44.8916 131.954 44.6716L132.461 44.6716L132.461 48.0708L124.048 48.0708L124.048 47.3071Z" fill="#FFFFFF" fill-opacity="1.000000" fill-rule="evenodd"/>
	<path id="Vector 2 (Stroke)" d="M35.2503 26.3819C35.2503 26.171 35.4285 26 35.6484 26L64.3115 26C64.5314 26 64.7096 26.171 64.7096 26.3819L64.7096 54.004C64.7096 54.2149 64.5314 54.3859 64.3115 54.3859C64.0917 54.3859 63.9134 54.2149 63.9134 54.004L63.9134 26.7637L35.6484 26.7637C35.4285 26.7637 35.2503 26.5928 35.2503 26.3819Z" fill="#FFFFFF" fill-opacity="1.000000" fill-rule="evenodd"/>
	<path id="Vector 2 (Stroke)" d="M35.2503 26.3819C35.2503 26.5928 35.4285 26.7637 35.6484 26.7637L63.9134 26.7637L63.9134 54.004C63.9134 54.2149 64.0917 54.3859 64.3115 54.3859C64.5314 54.3859 64.7096 54.2149 64.7096 54.004L64.7096 26.3819C64.7096 26.171 64.5314 26 64.3115 26L35.6484 26C35.4285 26 35.2503 26.171 35.2503 26.3819Z" stroke="#FFFFFF" stroke-opacity="1.000000" stroke-width="0.500000"/>
	<path id="Arrow (Stroke)" d="M32.4804 31.6572L34.9939 29.1437C35.1481 28.9895 35.3982 28.9895 35.5524 29.1437L38.0659 31.6572C38.2202 31.8115 38.2202 32.0615 38.0659 32.2158C37.9117 32.37 37.6616 32.37 37.5074 32.2158L35.6681 30.3765L35.6681 54.437L34.8782 54.437L34.8782 30.3765L33.0389 32.2158C32.8847 32.37 32.6346 32.37 32.4804 32.2158C32.3261 32.0615 32.3261 31.8115 32.4804 31.6572Z" fill="#FFFFFF" fill-opacity="1.000000" fill-rule="evenodd"/>
	<path id="Arrow (Stroke)" d="M34.8171 28.9669L32.3036 31.4805Q32.2091 31.5749 32.1619 31.6889Q32.1147 31.8029 32.1147 31.9365Q32.1147 32.0701 32.1619 32.1841Q32.2091 32.2981 32.3036 32.3926Q32.398 32.487 32.5121 32.5342Q32.6261 32.5815 32.7596 32.5815Q32.8932 32.5815 33.0072 32.5342Q33.1212 32.487 33.2157 32.3926L34.6282 30.98L34.6282 54.687L35.9181 54.687L35.9181 30.98L37.3306 32.3926Q37.425 32.487 37.5391 32.5342Q37.6531 32.5815 37.7866 32.5815Q37.9202 32.5815 38.0342 32.5342Q38.1482 32.487 38.2427 32.3926Q38.3371 32.2981 38.3844 32.1841Q38.4316 32.0701 38.4316 31.9365Q38.4316 31.8029 38.3844 31.6889Q38.3371 31.5749 38.2427 31.4805L35.7292 28.9669Q35.6347 28.8725 35.5207 28.8253Q35.4067 28.778 35.2731 28.778Q35.1396 28.778 35.0256 28.8253Q34.9115 28.8725 34.8171 28.9669ZM35.6681 30.73L35.6681 30.3765L35.9181 30.6265L37.5074 32.2158C37.6616 32.37 37.9117 32.37 38.0659 32.2158C38.2202 32.0615 38.2202 31.8115 38.0659 31.6572L35.5524 29.1437C35.3982 28.9895 35.1481 28.9895 34.9939 29.1437L32.4804 31.6572C32.3261 31.8115 32.3261 32.0615 32.4804 32.2158C32.6346 32.37 32.8847 32.37 33.0389 32.2158L34.6282 30.6265L34.8782 30.3765L34.8782 54.437L35.6681 54.437L35.6681 30.73Z" fill="#FFFFFF" fill-opacity="1.000000" fill-rule="evenodd"/>
	<path id="Arrow (Stroke)" d="M57.7758 51.644L60.3024 54.1575C60.4574 54.3118 60.4574 54.5618 60.3024 54.7161L57.7758 57.2296C57.6207 57.3838 57.3694 57.3838 57.2143 57.2296C57.0592 57.0753 57.0592 56.8253 57.2143 56.671L59.0632 54.8317L34.8771 54.8317L34.8771 54.0418L59.0632 54.0418L57.2143 52.2026C57.0592 52.0483 57.0592 51.7982 57.2143 51.644C57.3694 51.4897 57.6207 51.4897 57.7758 51.644Z" fill="#FFFFFF" fill-opacity="1.000000" fill-rule="evenodd"/>
	<path id="Arrow (Stroke)" d="M60.4787 53.9803L57.9521 51.4667Q57.8579 51.373 57.7444 51.3259Q57.6296 51.2783 57.495 51.2783Q57.3605 51.2783 57.2457 51.3259Q57.1322 51.373 57.038 51.4667Q56.9425 51.5618 56.895 51.6766Q56.848 51.7902 56.848 51.9233Q56.848 52.0563 56.895 52.1699Q56.9425 52.2848 57.038 52.3798L58.4574 53.7918L34.6271 53.7918L34.6271 55.0817L58.4574 55.0817L57.038 56.4938Q56.9425 56.5887 56.895 56.7036Q56.848 56.8173 56.848 56.9503Q56.848 57.0833 56.895 57.1969Q56.9425 57.3118 57.038 57.4068Q57.1322 57.5005 57.2457 57.5476Q57.3605 57.5952 57.495 57.5952Q57.6296 57.5952 57.7444 57.5476Q57.8579 57.5005 57.9521 57.4068L60.4787 54.8933Q60.5742 54.7983 60.6217 54.6834Q60.6687 54.5698 60.6687 54.4368Q60.6687 54.3037 60.6217 54.1901Q60.5742 54.0753 60.4787 53.9803ZM58.7087 54.8317L59.0632 54.8317L58.8119 55.0817L57.2143 56.671C57.0592 56.8253 57.0592 57.0753 57.2143 57.2296C57.3694 57.3838 57.6207 57.3838 57.7758 57.2296L60.3024 54.7161C60.4574 54.5618 60.4574 54.3118 60.3024 54.1575L57.7758 51.644C57.6207 51.4897 57.3694 51.4897 57.2143 51.644C57.0592 51.7982 57.0592 52.0483 57.2143 52.2026L58.8119 53.7918L59.0632 54.0418L34.8771 54.0418L34.8771 54.8317L58.7087 54.8317Z" fill="#FFFFFF" fill-opacity="1.000000" fill-rule="evenodd"/>
	<path id="Vector 3 (Stroke)" d="M46.1625 26.1157C46.3168 26.2699 46.3168 26.52 46.1625 26.6743L41.423 31.4138C41.2688 31.568 41.0187 31.568 40.8645 31.4138C40.7102 31.2595 40.7102 31.0094 40.8645 30.8552L45.604 26.1157C45.7582 25.9614 46.0083 25.9614 46.1625 26.1157Z" fill="#FFFFFF" fill-opacity="1.000000" fill-rule="evenodd"/>
	<path id="Vector 3 (Stroke)" d="M46.1625 26.1157C46.0083 25.9614 45.7582 25.9614 45.604 26.1157L40.8645 30.8552C40.7102 31.0094 40.7102 31.2595 40.8645 31.4138C41.0187 31.568 41.2688 31.568 41.423 31.4138L46.1625 26.6743C46.3168 26.52 46.3168 26.2699 46.1625 26.1157Z" stroke="#FFFFFF" stroke-opacity="1.000000" stroke-width="0.500000" stroke-linejoin="round"/>
	<path id="Vector 3.6 (Stroke)" d="M64.4622 44.9418C64.6165 45.0961 64.6165 45.3462 64.4622 45.5004L60.1177 49.845C59.9635 49.9992 59.7134 49.9992 59.5592 49.845C59.4049 49.6907 59.4049 49.4406 59.5592 49.2864L63.9037 44.9418C64.0579 44.7876 64.308 44.7876 64.4622 44.9418Z" fill="#FFFFFF" fill-opacity="1.000000" fill-rule="evenodd"/>
	<path id="Vector 3.6 (Stroke)" d="M64.4622 44.9418C64.308 44.7876 64.0579 44.7876 63.9037 44.9418L59.5592 49.2864C59.4049 49.4406 59.4049 49.6907 59.5592 49.845C59.7134 49.9992 59.9635 49.9992 60.1177 49.845L64.4622 45.5004C64.6165 45.3462 64.6165 45.0961 64.4622 44.9418Z" stroke="#FFFFFF" stroke-opacity="1.000000" stroke-width="0.500000" stroke-linejoin="round"/>
	<path id="Vector 3.1 (Stroke)" d="M52.0851 26.1139C52.2403 26.2672 52.2419 26.5172 52.0887 26.6724L41.8197 37.073C41.6665 37.2282 41.4164 37.2298 41.2612 37.0766C41.106 36.9233 41.1044 36.6732 41.2576 36.518L51.5266 26.1175C51.6798 25.9622 51.9299 25.9606 52.0851 26.1139Z" fill="#FFFFFF" fill-opacity="1.000000" fill-rule="evenodd"/>
	<path id="Vector 3.1 (Stroke)" d="M52.0851 26.1139C51.9299 25.9606 51.6798 25.9622 51.5266 26.1175L41.2576 36.518C41.1044 36.6732 41.106 36.9233 41.2612 37.0766C41.4164 37.2298 41.6665 37.2282 41.8197 37.073L52.0887 26.6724C52.2419 26.5172 52.2403 26.2672 52.0851 26.1139Z" stroke="#FFFFFF" stroke-opacity="1.000000" stroke-width="0.500000" stroke-linejoin="round"/>
	<path id="Vector 3.5 (Stroke)" d="M64.5938 38.3588C64.7481 38.5131 64.7481 38.7632 64.5938 38.9174L54.5882 48.923C54.434 49.0773 54.1839 49.0773 54.0297 48.923C53.8754 48.7687 53.8754 48.5187 54.0297 48.3644L64.0353 38.3588C64.1895 38.2046 64.4396 38.2046 64.5938 38.3588Z" fill="#FFFFFF" fill-opacity="1.000000" fill-rule="evenodd"/>
	<path id="Vector 3.5 (Stroke)" d="M64.5938 38.3588C64.4396 38.2046 64.1895 38.2046 64.0353 38.3588L54.0297 48.3644C53.8754 48.5187 53.8754 48.7687 54.0297 48.923C54.1839 49.0773 54.434 49.0773 54.5882 48.923L64.5938 38.9174C64.7481 38.7632 64.7481 38.5131 64.5938 38.3588Z" stroke="#FFFFFF" stroke-opacity="1.000000" stroke-width="0.500000" stroke-linejoin="round"/>
	<path id="Vector 3.2 (Stroke)" d="M58.4084 26.2488C58.5614 26.4043 58.5594 26.6544 58.4039 26.8073L41.9473 43.0006C41.7918 43.1536 41.5418 43.1516 41.3888 42.9961C41.2358 42.8406 41.2378 42.5906 41.3933 42.4376L57.8499 26.2443C58.0053 26.0913 58.2554 26.0933 58.4084 26.2488Z" fill="#FFFFFF" fill-opacity="1.000000" fill-rule="evenodd"/>
	<path id="Vector 3.2 (Stroke)" d="M58.4084 26.2488C58.2554 26.0933 58.0053 26.0913 57.8499 26.2443L41.3933 42.4376C41.2378 42.5906 41.2358 42.8406 41.3888 42.9961C41.5418 43.1516 41.7918 43.1536 41.9473 43.0006L58.4039 26.8073C58.5594 26.6544 58.5614 26.4043 58.4084 26.2488Z" stroke="#FFFFFF" stroke-opacity="1.000000" stroke-width="0.500000" stroke-linejoin="round"/>
	<path id="Vector 3.4 (Stroke)" d="M64.594 32.1713C64.7482 32.3256 64.7482 32.5757 64.594 32.7299L48.0057 49.3181C47.8515 49.4724 47.6014 49.4724 47.4472 49.3181C47.2929 49.1639 47.2929 48.9138 47.4472 48.7596L64.0354 32.1713C64.1896 32.0171 64.4397 32.0171 64.594 32.1713Z" fill="#FFFFFF" fill-opacity="1.000000" fill-rule="evenodd"/>
	<path id="Vector 3.4 (Stroke)" d="M64.594 32.1713C64.4397 32.0171 64.1896 32.0171 64.0354 32.1713L47.4472 48.7596C47.2929 48.9138 47.2929 49.1639 47.4472 49.3181C47.6014 49.4724 47.8515 49.4724 48.0057 49.3181L64.594 32.7299C64.7482 32.5757 64.7482 32.3256 64.594 32.1713Z" stroke="#FFFFFF" stroke-opacity="1.000000" stroke-width="0.500000" stroke-linejoin="round"/>
	<path id="Vector 3.3 (Stroke)" d="M64.3306 26.2465C64.4849 26.4008 64.4849 26.6509 64.3306 26.8051L41.6864 49.4493C41.5321 49.6036 41.2821 49.6036 41.1278 49.4493C40.9736 49.2951 40.9736 49.045 41.1278 48.8908L63.7721 26.2465C63.9263 26.0923 64.1764 26.0923 64.3306 26.2465Z" fill="#FFFFFF" fill-opacity="1.000000" fill-rule="evenodd"/>
	<path id="Vector 3.3 (Stroke)" d="M64.3306 26.2465C64.1764 26.0923 63.9263 26.0923 63.7721 26.2465L41.1278 48.8908C40.9736 49.045 40.9736 49.2951 41.1278 49.4493C41.2821 49.6036 41.5321 49.6036 41.6864 49.4493L64.3306 26.8051C64.4849 26.6509 64.4849 26.4008 64.3306 26.2465Z" stroke="#FFFFFF" stroke-opacity="1.000000" stroke-width="0.500000" stroke-linejoin="round"/>
	<path id="128 DAYS" d="M215.41 48.0708L215.41 47.8176L216.597 47.4773L216.597 38.1431L214.813 39.4006L214.472 38.9773L217.568 36.1716L219.403 36.1716L219.403 47.4773L220.594 47.8176L220.594 48.0708L215.41 48.0708ZM221.785 47.3071Q221.785 46.3027 222.183 45.481Q222.581 44.655 223.158 44.0449Q223.739 43.4307 224.673 42.5964Q225.541 41.8328 226.035 41.314Q226.528 40.7952 226.869 40.1436Q227.209 39.4878 227.209 38.72Q227.209 37.5994 226.661 36.9727Q226.118 36.3418 225.25 36.3418Q224.76 36.3418 224.25 36.4788L223.893 36.595L223.893 39.3176L223.673 39.3674Q223.399 39.4006 223.212 39.4006Q222.635 39.4006 222.287 39.052Q221.938 38.7034 221.938 38.1265Q221.938 37.5828 222.353 37.0723Q222.768 36.5618 223.594 36.238Q224.42 35.9143 225.59 35.9143Q227.886 35.9143 228.99 36.8357Q230.098 37.7529 230.098 39.4006Q230.098 40.4382 229.562 41.1853Q229.027 41.9324 228.251 42.4263Q227.479 42.9202 226.188 43.5469Q225.101 44.074 224.428 44.4766Q223.756 44.875 223.187 45.4353Q222.619 45.9956 222.378 46.7095L228.67 46.7095Q228.786 45.7922 229.247 45.1821Q229.434 44.8916 229.691 44.6716L230.197 44.6716L230.197 48.0708L221.785 48.0708L221.785 47.3071ZM236.063 48.324Q233.921 48.324 232.825 47.4773Q231.73 46.6265 231.73 45.2651Q231.73 44.3313 232.543 43.4556Q233.361 42.5798 234.535 42.2063Q233.411 41.5754 232.825 40.8201Q232.24 40.0647 232.24 38.9773Q232.24 37.616 233.336 36.7651Q234.432 35.9143 236.573 35.9143Q237.644 35.9143 238.449 36.3086Q239.259 36.6987 239.698 37.3296Q240.143 37.9563 240.143 38.637Q240.143 39.4338 239.454 40.1851Q238.769 40.9321 237.847 41.1853Q239.395 41.866 240.192 42.804Q240.993 43.7378 240.993 45.095Q240.993 45.979 240.45 46.7095Q239.906 47.4399 238.802 47.884Q237.698 48.324 236.063 48.324ZM237.341 40.845Q237.984 40.5586 238.383 40.0149Q238.785 39.467 238.785 38.637Q238.785 38.0227 238.487 37.4956Q238.188 36.9685 237.719 36.6572Q237.254 36.3418 236.743 36.3418Q236.013 36.3418 235.527 36.9104Q235.046 37.479 235.046 38.4668Q235.046 39.824 237.341 40.845ZM235.893 47.9006Q236.984 47.9006 237.586 47.2988Q238.188 46.6929 238.188 45.6055Q238.188 44.7878 237.37 43.9578Q236.557 43.1235 235.216 42.5466Q234.261 42.887 233.718 43.5593Q233.174 44.2275 233.174 45.2651Q233.174 45.979 233.539 46.585Q233.905 47.1868 234.523 47.5437Q235.145 47.9006 235.893 47.9006ZM247.115 47.8176L248.136 47.5603L248.136 36.6821L247.115 36.4248L247.115 36.1716L251.448 36.1716Q254.49 36.1716 256.113 37.7363Q257.74 39.2969 257.74 42.1191Q257.74 44.9414 256.113 46.5061Q254.49 48.0708 251.448 48.0708L247.115 48.0708L247.115 47.8176ZM251.448 47.6475Q253.029 47.6475 253.897 46.365Q254.764 45.0784 254.764 42.1191Q254.764 39.1641 253.897 37.8816Q253.029 36.595 251.448 36.595L250.937 36.595L250.937 47.6475L251.448 47.6475ZM257.569 47.8176L258.93 47.3071L263.603 36.0015L264.114 36.0015L268.957 47.5603L269.808 47.8176L269.808 48.0708L267.77 48.0708Q266.886 48.0708 266.322 47.6724Q265.762 47.2698 265.492 46.6265L264.624 44.5845L260.561 44.5845L259.441 47.3071L260.715 47.8176L260.715 48.0708L257.569 48.0708L257.569 47.8176ZM260.731 44.1611L264.454 44.1611L262.582 39.6912L260.731 44.1611ZM271.595 47.8176L272.612 47.5603L272.612 43.6506L269.13 36.6821L268.279 36.4248L268.279 36.1716L270.404 36.1716Q271.288 36.1716 271.823 36.5452Q272.359 36.9187 272.699 37.616L275.214 42.6296L277.8 36.9353L276.526 36.4248L276.526 36.1716L279.755 36.1716L279.755 36.4248L278.394 36.9353L275.418 43.4805L275.418 47.5603L276.439 47.8176L276.439 48.0708L271.595 48.0708L271.595 47.8176ZM284.088 48.324Q282.884 48.324 281.83 47.7803Q281.353 47.5437 281.029 47.22Q280.792 47.6101 280.435 47.9172Q280.128 48.1372 280.095 48.1538L279.668 48.1538L279.668 44.9248L280.348 44.9248Q280.606 45.759 281.062 46.4231Q282.1 47.9006 283.747 47.9006Q284.719 47.9006 285.296 47.3237Q285.872 46.7468 285.872 45.7756Q285.872 45.2153 285.54 44.7754Q285.212 44.3313 284.719 43.991Q284.225 43.6506 283.341 43.1401Q282.22 42.5134 281.523 42.0029Q280.826 41.4924 280.332 40.7205Q279.838 39.9443 279.838 38.8901Q279.838 38.0559 280.307 37.3877Q280.776 36.7153 281.71 36.3169Q282.643 35.9143 284.005 35.9143Q284.988 35.9143 285.976 36.4788Q286.35 36.6821 286.723 37.0225Q287.014 36.5784 287.321 36.3252Q287.624 36.1011 287.657 36.0845L288.085 36.0845L288.085 39.3176L287.404 39.3176Q287.184 38.5 286.74 37.8359Q286.333 37.1926 285.727 36.7693Q285.125 36.3418 284.345 36.3418Q283.681 36.3418 283.204 36.8689Q282.731 37.396 282.731 38.2095Q282.731 38.8403 283.096 39.3425Q283.461 39.8447 283.996 40.2183Q284.532 40.5918 285.449 41.1189Q286.52 41.729 287.184 42.2063Q287.848 42.6836 288.305 43.3892Q288.765 44.0947 288.765 45.012Q288.765 45.9292 288.238 46.6846Q287.711 47.4399 286.657 47.884Q285.603 48.324 284.088 48.324Z" fill="#FFFFFF" fill-opacity="1.000000" fill-rule="evenodd"/>
	<path id="Vector 2" d="M150.09 69.035L150.09 15" stroke="#FFFFFF" stroke-opacity="1.000000" stroke-width="0.750000"/>
	<path id="Vector" d="M191.597 28.1987C191.334 26.946 190.193 26 188.829 26C188.517 26 188.264 26.2457 188.264 26.5497C188.264 26.8536 188.517 27.0994 188.829 27.0994C189.764 27.0994 190.524 27.8392 190.524 28.7484C190.524 29.6575 189.764 30.3974 188.829 30.3974C188.517 30.3974 188.264 30.6431 188.264 30.947C188.264 31.251 188.517 31.4967 188.829 31.4967C190.193 31.4967 191.334 30.5507 191.597 29.298L198.998 29.298L198.998 34.2451L168.491 34.2451L168.491 29.298L176.4 29.298L178.095 29.298C178.407 29.298 178.66 29.0523 178.66 28.7484C178.66 28.4444 178.407 28.1987 178.095 28.1987L177.069 28.1987C177.303 27.56 177.925 27.0994 178.66 27.0994C179.595 27.0994 180.355 27.8392 180.355 28.7484C180.355 29.6575 179.595 30.3974 178.66 30.3974C178.348 30.3974 178.095 30.6431 178.095 30.947C178.095 31.251 178.348 31.4967 178.66 31.4967C180.218 31.4967 181.485 30.2638 181.485 28.7484C181.485 27.2329 180.218 26 178.66 26C177.296 26 176.155 26.946 175.893 28.1987L167.361 28.1987L167.361 35.3444L167.361 57.3313L200.128 57.3313L200.128 35.3444L200.128 28.1987L191.597 28.1987ZM198.998 56.2319L168.491 56.2319L168.491 35.3444L198.998 35.3444L198.998 56.2319Z" fill="#FFFFFF" fill-opacity="1.000000" fill-rule="nonzero"/>
	<path id="Vector" d="M182.05 27.0994C182.984 27.0994 183.745 27.8392 183.745 28.7484C183.745 29.6575 182.984 30.3974 182.05 30.3974C181.738 30.3974 181.485 30.6431 181.485 30.947C181.485 31.251 181.738 31.4967 182.05 31.4967C183.607 31.4967 184.875 30.2638 184.875 28.7484C184.875 27.2329 183.607 26 182.05 26C181.738 26 181.485 26.2457 181.485 26.5497C181.485 26.8536 181.738 27.0994 182.05 27.0994Z" fill="#FFFFFF" fill-opacity="1.000000" fill-rule="nonzero"/>
	<path id="Vector" d="M185.439 27.0994C186.374 27.0994 187.134 27.8392 187.134 28.7484C187.134 29.6575 186.374 30.3974 185.439 30.3974C185.128 30.3974 184.875 30.6431 184.875 30.947C184.875 31.251 185.128 31.4967 185.439 31.4967C186.997 31.4967 188.264 30.2638 188.264 28.7484C188.264 27.2329 186.997 26 185.439 26C185.128 26 184.875 26.2457 184.875 26.5497C184.875 26.8536 185.128 27.0994 185.439 27.0994Z" fill="#FFFFFF" fill-opacity="1.000000" fill-rule="nonzero"/>
	<path id="Vector" d="M172.446 39.7415L184.874 39.7415C185.186 39.7415 185.439 39.4957 185.439 39.1918C185.439 38.8878 185.186 38.6421 184.874 38.6421L172.446 38.6421C172.134 38.6421 171.881 38.8878 171.881 39.1918C171.881 39.4957 172.134 39.7415 172.446 39.7415Z" fill="#FFFFFF" fill-opacity="1.000000" fill-rule="nonzero"/>
	<path id="Vector" d="M195.043 47.4375L186.569 47.4375C186.257 47.4375 186.004 47.6832 186.004 47.9872C186.004 48.2911 186.257 48.5369 186.569 48.5369L195.043 48.5369C195.355 48.5369 195.608 48.2911 195.608 47.9872C195.608 47.6832 195.355 47.4375 195.043 47.4375Z" fill="#FFFFFF" fill-opacity="1.000000" fill-rule="nonzero"/>
	<path id="Vector" d="M172.446 44.1394L178.095 44.1394C178.407 44.1394 178.66 43.8937 178.66 43.5897C178.66 43.2858 178.407 43.04 178.095 43.04L172.446 43.04C172.134 43.04 171.881 43.2858 171.881 43.5897C171.881 43.8937 172.134 44.1394 172.446 44.1394Z" fill="#FFFFFF" fill-opacity="1.000000" fill-rule="nonzero"/>
	<path id="Vector" d="M195.043 51.835L189.394 51.835C189.082 51.835 188.829 52.0807 188.829 52.3846C188.829 52.6886 189.082 52.9343 189.394 52.9343L195.043 52.9343C195.355 52.9343 195.608 52.6886 195.608 52.3846C195.608 52.0807 195.355 51.835 195.043 51.835Z" fill="#FFFFFF" fill-opacity="1.000000" fill-rule="nonzero"/>
	<path id="Vector" d="M183.18 43.5897C183.18 43.8937 183.433 44.1394 183.745 44.1394L192.219 44.1394C192.531 44.1394 192.784 43.8937 192.784 43.5897C192.784 43.2858 192.531 43.04 192.219 43.04L183.745 43.04C183.433 43.04 183.18 43.2858 183.18 43.5897Z" fill="#FFFFFF" fill-opacity="1.000000" fill-rule="nonzero"/>
	<path id="Vector" d="M181.321 43.9799C181.423 43.8755 181.485 43.7326 181.485 43.5897C181.485 43.4462 181.423 43.3033 181.321 43.1994C181.112 42.996 180.728 42.996 180.519 43.1994C180.417 43.3033 180.355 43.4462 180.355 43.5897C180.355 43.7326 180.417 43.8755 180.519 43.9799C180.626 44.0838 180.773 44.1393 180.92 44.1393C181.067 44.1393 181.214 44.0838 181.321 43.9799Z" fill="#FFFFFF" fill-opacity="1.000000" fill-rule="nonzero"/>
	<path id="Vector" d="M174.706 47.9872C174.706 48.2911 174.959 48.5369 175.271 48.5369L183.745 48.5369C184.056 48.5369 184.31 48.2911 184.31 47.9872C184.31 47.6832 184.056 47.4375 183.745 47.4375L175.271 47.4375C174.959 47.4375 174.706 47.6832 174.706 47.9872Z" fill="#FFFFFF" fill-opacity="1.000000" fill-rule="nonzero"/>
	<path id="Vector" d="M172.446 48.5366C172.593 48.5366 172.74 48.4761 172.847 48.3772C172.949 48.2728 173.011 48.1299 173.011 47.9869C173.011 47.8435 172.949 47.7006 172.847 47.6022C172.638 47.3933 172.254 47.3933 172.045 47.5967C171.943 47.7006 171.881 47.8435 171.881 47.9869C171.881 48.1299 171.943 48.2728 172.045 48.3772C172.152 48.4761 172.293 48.5366 172.446 48.5366Z" fill="#FFFFFF" fill-opacity="1.000000" fill-rule="nonzero"/>
	<path id="Vector" d="M195.043 44.1393C195.19 44.1393 195.337 44.0838 195.445 43.9799C195.552 43.8755 195.608 43.7326 195.608 43.5897C195.608 43.4462 195.552 43.3033 195.445 43.1994C195.23 42.996 194.851 42.996 194.642 43.1994C194.541 43.3033 194.479 43.4462 194.479 43.5897C194.479 43.7326 194.541 43.8755 194.642 43.9799C194.75 44.0838 194.897 44.1393 195.043 44.1393Z" fill="#FFFFFF" fill-opacity="1.000000" fill-rule="nonzero"/>
	<path id="Vector" d="M186.569 51.835L172.446 51.835C172.134 51.835 171.881 52.0807 171.881 52.3846C171.881 52.6886 172.134 52.9343 172.446 52.9343L186.569 52.9343C186.881 52.9343 187.134 52.6886 187.134 52.3846C187.134 52.0807 186.881 51.835 186.569 51.835Z" fill="#FFFFFF" fill-opacity="1.000000" fill-rule="nonzero"/>
</svg>
