<svg width="333.752808" height="94.000000" viewBox="0 0 333.753 94" fill="none" xmlns="http://www.w3.org/2000/svg" xmlns:xlink="http://www.w3.org/1999/xlink">
	<desc>
			Created with Pixso.
	</desc>
	<defs>
		<filter id="filter_1_11431_dd" x="0.000000" y="0.000000" width="333.752808" height="94.000000" filterUnits="userSpaceOnUse" color-interpolation-filters="sRGB">
			<feFlood flood-opacity="0" result="BackgroundImageFix"/>
			<feColorMatrix in="SourceAlpha" type="matrix" values="0 0 0 0 0 0 0 0 0 0 0 0 0 0 0 0 0 0 127 0" result="hardAlpha"/>
			<feOffset dx="5" dy="5"/>
			<feGaussianBlur stdDeviation="6.66667"/>
			<feComposite in2="hardAlpha" operator="out" k2="-1" k3="1"/>
			<feColorMatrix type="matrix" values="0 0 0 0 0.8902 0 0 0 0 0.72157 0 0 0 0 0.45098 0 0 0 0.5 0"/>
			<feBlend mode="normal" in2="BackgroundImageFix" result="effect_dropShadow_1"/>
			<feBlend mode="normal" in="SourceGraphic" in2="effect_dropShadow_1" result="shape"/>
		</filter>
	</defs>
	<g filter="url(#filter_1_11431_dd)">
		<rect id="Rectangle 4.22" x="15.000000" y="15.000000" width="293.752808" height="54.000000" fill="#E3B873" fill-opacity="1.000000"/>
	</g>
	<path id="56 м2" d="M84.3523 48.324Q83.1777 48.324 82.3518 48.0044Q81.53 47.6807 81.1108 47.1702Q80.6958 46.6597 80.6958 46.116Q80.6958 45.5391 81.0444 45.1904Q81.3931 44.8418 81.9741 44.8418Q82.1069 44.8418 82.2439 44.8667Q82.3809 44.8916 82.4307 44.8916L82.6506 44.9248L82.6506 47.6475Q82.6672 47.6475 83.0076 47.7803Q83.4517 47.9006 84.012 47.9006Q85.033 47.9006 85.6265 47.0623Q86.2241 46.2197 86.2241 44.4143Q86.2241 42.6296 85.6099 41.8245Q84.9998 41.0151 83.8418 41.0151Q83.4019 41.0151 83.0076 41.1687Q82.6174 41.3223 82.1775 41.5754Q81.8206 41.7996 81.4636 42.1191L81.1233 41.866L81.804 36.1716L86.8176 36.1716Q86.938 35.2544 87.3945 34.6401Q87.5813 34.3538 87.8386 34.1296L88.3491 34.1296L88.3491 37.4458L82.1775 37.4458L81.7168 41.3555Q81.9534 41.1853 82.4141 40.9819Q83.3645 40.5918 84.1821 40.5918Q86.6641 40.5918 87.8884 41.6045Q89.1128 42.613 89.1128 44.4143Q89.1128 46.2529 87.905 47.2905Q86.6973 48.324 84.3523 48.324ZM95.2335 48.324Q93.0919 48.324 91.8675 46.7966Q90.6431 45.2651 90.6431 42.1191Q90.6431 39.0603 91.9754 37.4873Q93.3118 35.9143 95.6568 35.9143Q96.6612 35.9143 97.4166 36.2463Q98.1719 36.5784 98.5704 37.0889Q98.973 37.5994 98.973 38.1265Q98.973 38.7034 98.6243 39.052Q98.2757 39.4006 97.6988 39.4006Q97.4581 39.4006 97.2215 39.3674L97.0181 39.3176L97.0181 36.595L96.6944 36.4788Q96.3209 36.3418 95.9971 36.3418Q95.1629 36.3418 94.6275 36.7859Q94.0921 37.2258 93.8099 38.417Q93.5318 39.604 93.5318 41.7788Q93.7186 41.4924 93.9925 41.2725Q94.6358 40.762 95.4866 40.762Q96.7276 40.762 97.6531 41.231Q98.5828 41.6958 99.0726 42.53Q99.5665 43.3601 99.5665 44.4143Q99.5665 46.2363 98.4334 47.2822Q97.3045 48.324 95.2335 48.324ZM95.2335 47.9878Q95.5738 47.9878 95.9017 47.6475Q96.2337 47.3071 96.4537 46.5435Q96.6778 45.7756 96.6778 44.5845Q96.6778 43.3975 96.4454 42.6338Q96.2171 41.866 95.8685 41.5256Q95.5198 41.1853 95.1463 41.1853Q94.449 41.1853 94.034 41.866Q93.619 42.5466 93.619 43.991Q93.619 46.1492 94.0838 47.0706Q94.5528 47.9878 95.2335 47.9878ZM107.47 38.2966L107.47 47.3071L108.832 47.8176L108.832 48.0708L105.603 48.0708L105.603 47.8176L106.964 47.3071L106.964 36.6821L105.773 36.4248L105.773 36.1716L108.068 36.1716Q108.952 36.1716 109.471 36.5369Q109.99 36.9021 110.363 37.616L114.07 44.7048L116.908 37.616Q117.195 36.8689 117.689 36.5203Q118.183 36.1716 119.204 36.1716L120.988 36.1716L120.988 36.4248L119.967 36.6821L119.967 47.5603L120.988 47.8176L120.988 48.0708L116.141 48.0708L116.141 47.8176L117.162 47.5603L117.162 38.2966L113.169 48.241L112.658 48.241L107.47 38.2966ZM122.348 47.3071Q122.348 46.3027 122.746 45.481Q123.145 44.655 123.722 44.0449Q124.303 43.4307 125.236 42.5964Q126.104 41.8328 126.598 41.314Q127.092 40.7952 127.432 40.1436Q127.772 39.4878 127.772 38.72Q127.772 37.5994 127.225 36.9727Q126.681 36.3418 125.813 36.3418Q125.324 36.3418 124.813 36.4788L124.456 36.595L124.456 39.3176L124.236 39.3674Q123.962 39.4006 123.776 39.4006Q123.199 39.4006 122.85 39.052Q122.501 38.7034 122.501 38.1265Q122.501 37.5828 122.916 37.0723Q123.331 36.5618 124.157 36.238Q124.983 35.9143 126.154 35.9143Q128.449 35.9143 129.553 36.8357Q130.661 37.7529 130.661 39.4006Q130.661 40.4382 130.126 41.1853Q129.59 41.9324 128.814 42.4263Q128.042 42.9202 126.751 43.5469Q125.664 44.074 124.992 44.4766Q124.319 44.875 123.751 45.4353Q123.182 45.9956 122.941 46.7095L129.233 46.7095Q129.35 45.7922 129.81 45.1821Q129.997 44.8916 130.254 44.6716L130.761 44.6716L130.761 48.0708L122.348 48.0708L122.348 47.3071Z" fill="#FFFFFF" fill-opacity="1.000000" fill-rule="evenodd"/>
	<path id="Vector 2 (Stroke)" d="M35.2502 26.3819C35.2502 26.171 35.4284 26 35.6483 26L64.3116 26C64.5315 26 64.7097 26.171 64.7097 26.3819L64.7097 54.0042C64.7097 54.2151 64.5315 54.3861 64.3116 54.3861C64.0918 54.3861 63.9135 54.2151 63.9135 54.0042L63.9135 26.7637L35.6483 26.7637C35.4284 26.7637 35.2502 26.5928 35.2502 26.3819Z" fill="#FFFFFF" fill-opacity="1.000000" fill-rule="evenodd"/>
	<path id="Vector 2 (Stroke)" d="M35.2502 26.3819C35.2502 26.5928 35.4284 26.7637 35.6483 26.7637L63.9135 26.7637L63.9135 54.0042C63.9135 54.2151 64.0918 54.3861 64.3116 54.3861C64.5315 54.3861 64.7097 54.2151 64.7097 54.0042L64.7097 26.3819C64.7097 26.171 64.5315 26 64.3116 26L35.6483 26C35.4284 26 35.2502 26.171 35.2502 26.3819Z" stroke="#FFFFFF" stroke-opacity="1.000000" stroke-width="0.500000" stroke-linejoin="round"/>
	<path id="Arrow (Stroke)" d="M32.4803 31.657L34.9938 29.1435C35.148 28.9893 35.3981 28.9893 35.5523 29.1435L38.0658 31.657C38.2201 31.8113 38.2201 32.0613 38.0658 32.2156C37.9116 32.3698 37.6615 32.3698 37.5073 32.2156L35.668 30.3763L35.668 54.437L34.8781 54.437L34.8781 30.3763L33.0388 32.2156C32.8846 32.3698 32.6345 32.3698 32.4803 32.2156C32.326 32.0613 32.326 31.8113 32.4803 31.657Z" fill="#FFFFFF" fill-opacity="1.000000" fill-rule="evenodd"/>
	<path id="Arrow (Stroke)" d="M34.817 28.9667L32.3035 31.4803Q32.209 31.5747 32.1618 31.6887Q32.1146 31.8027 32.1146 31.9363Q32.1146 32.0699 32.1618 32.1839Q32.209 32.2979 32.3035 32.3924Q32.3979 32.4868 32.5119 32.5341Q32.6259 32.5813 32.7595 32.5813Q32.8931 32.5813 33.0071 32.5341Q33.1211 32.4868 33.2156 32.3924L34.6281 30.9799L34.6281 54.687L35.918 54.687L35.918 30.9799L37.3305 32.3924Q37.425 32.4868 37.539 32.5341Q37.653 32.5813 37.7866 32.5813Q37.9201 32.5813 38.0341 32.5341Q38.1482 32.4868 38.2426 32.3924Q38.3371 32.2979 38.3843 32.1839Q38.4315 32.0699 38.4315 31.9363Q38.4315 31.8027 38.3843 31.6887Q38.3371 31.5747 38.2426 31.4803L35.7291 28.9667Q35.6346 28.8723 35.5206 28.8251Q35.4066 28.7778 35.273 28.7778Q35.1395 28.7778 35.0255 28.8251Q34.9114 28.8723 34.817 28.9667ZM35.668 30.7299L35.668 30.3763L35.918 30.6263L37.5073 32.2156C37.6615 32.3698 37.9116 32.3698 38.0658 32.2156C38.2201 32.0613 38.2201 31.8113 38.0658 31.657L35.5523 29.1435C35.3981 28.9893 35.148 28.9893 34.9938 29.1435L32.4803 31.657C32.326 31.8113 32.326 32.0613 32.4803 32.2156C32.6345 32.3698 32.8846 32.3698 33.0388 32.2156L34.8781 30.3763L34.8781 54.437L35.668 54.437L35.668 30.7299Z" fill="#FFFFFF" fill-opacity="1.000000" fill-rule="evenodd"/>
	<path id="Arrow (Stroke)" d="M57.7759 51.6445L60.3026 54.158C60.4576 54.3123 60.4576 54.5623 60.3026 54.7166L57.7759 57.2301C57.6209 57.3843 57.3695 57.3843 57.2145 57.2301C57.0594 57.0759 57.0594 56.8257 57.2145 56.6715L59.0634 54.8323L34.8771 54.8323L34.8771 54.0423L59.0634 54.0423L57.2145 52.2031C57.0594 52.0488 57.0594 51.7987 57.2145 51.6445C57.3695 51.4902 57.6209 51.4902 57.7759 51.6445Z" fill="#FFFFFF" fill-opacity="1.000000" fill-rule="evenodd"/>
	<path id="Arrow (Stroke)" d="M60.4789 53.9808L57.9523 51.4672Q57.8581 51.3735 57.7446 51.3264Q57.6298 51.2788 57.4952 51.2788Q57.3607 51.2788 57.2459 51.3264Q57.1324 51.3735 57.0382 51.4672Q56.9427 51.5623 56.8952 51.6771Q56.8482 51.7907 56.8482 51.9238Q56.8482 52.0568 56.8952 52.1704Q56.9427 52.2853 57.0382 52.3803L58.4576 53.7923L34.6271 53.7923L34.6271 55.0823L58.4576 55.0823L57.0382 56.4943Q56.9427 56.5893 56.8952 56.7042Q56.8482 56.8177 56.8482 56.9508Q56.8482 57.0839 56.8952 57.1974Q56.9427 57.3123 57.0382 57.4073Q57.1324 57.501 57.2459 57.5482Q57.3607 57.5958 57.4952 57.5958Q57.6298 57.5958 57.7445 57.5482Q57.8581 57.501 57.9523 57.4073L60.4789 54.8938Q60.5744 54.7988 60.6219 54.684Q60.6689 54.5703 60.6689 54.4373Q60.6689 54.3043 60.6219 54.1906Q60.5744 54.0758 60.4789 53.9808ZM58.7089 54.8323L59.0634 54.8323L58.812 55.0823L57.2145 56.6715C57.0594 56.8257 57.0594 57.0759 57.2145 57.2301C57.3695 57.3843 57.6209 57.3843 57.7759 57.2301L60.3026 54.7166C60.4576 54.5623 60.4576 54.3123 60.3026 54.158L57.7759 51.6445C57.6209 51.4902 57.3695 51.4902 57.2145 51.6445C57.0594 51.7987 57.0594 52.0488 57.2145 52.2031L58.812 53.7923L59.0634 54.0423L34.8771 54.0423L34.8771 54.8323L58.7089 54.8323Z" fill="#FFFFFF" fill-opacity="1.000000" fill-rule="evenodd"/>
	<path id="Vector 3 (Stroke)" d="M46.1625 26.1157C46.3167 26.2699 46.3167 26.52 46.1625 26.6743L41.423 31.4138C41.2687 31.568 41.0186 31.568 40.8644 31.4138C40.7101 31.2595 40.7101 31.0095 40.8644 30.8552L45.6039 26.1157C45.7582 25.9614 46.0082 25.9614 46.1625 26.1157Z" fill="#FFFFFF" fill-opacity="1.000000" fill-rule="evenodd"/>
	<path id="Vector 3 (Stroke)" d="M46.1625 26.1157C46.0082 25.9614 45.7582 25.9614 45.6039 26.1157L40.8644 30.8552C40.7101 31.0095 40.7101 31.2595 40.8644 31.4138C41.0186 31.568 41.2687 31.568 41.423 31.4138L46.1625 26.6743C46.3167 26.52 46.3167 26.2699 46.1625 26.1157Z" stroke="#FFFFFF" stroke-opacity="1.000000" stroke-width="0.500000" stroke-linejoin="round"/>
	<path id="Vector 3.6 (Stroke)" d="M64.4624 44.9423C64.6167 45.0966 64.6167 45.3467 64.4624 45.5009L60.1179 49.8455C59.9636 49.9997 59.7135 49.9997 59.5593 49.8455C59.405 49.6912 59.405 49.4412 59.5593 49.2869L63.9039 44.9423C64.0581 44.7881 64.3082 44.7881 64.4624 44.9423Z" fill="#FFFFFF" fill-opacity="1.000000" fill-rule="evenodd"/>
	<path id="Vector 3.6 (Stroke)" d="M64.4624 44.9423C64.3082 44.7881 64.0581 44.7881 63.9039 44.9423L59.5593 49.2869C59.405 49.4412 59.405 49.6912 59.5593 49.8455C59.7135 49.9997 59.9636 49.9997 60.1179 49.8455L64.4624 45.5009C64.6167 45.3467 64.6167 45.0966 64.4624 44.9423Z" stroke="#FFFFFF" stroke-opacity="1.000000" stroke-width="0.500000" stroke-linejoin="round"/>
	<path id="Vector 3.1 (Stroke)" d="M52.0851 26.1139C52.2403 26.2672 52.2419 26.5172 52.0886 26.6725L41.8196 37.0731C41.6664 37.2283 41.4163 37.2299 41.2611 37.0767C41.1059 36.9234 41.1043 36.6733 41.2575 36.5181L51.5265 26.1175C51.6798 25.9622 51.9298 25.9606 52.0851 26.1139Z" fill="#FFFFFF" fill-opacity="1.000000" fill-rule="evenodd"/>
	<path id="Vector 3.1 (Stroke)" d="M52.0851 26.1139C51.9298 25.9606 51.6798 25.9622 51.5265 26.1175L41.2575 36.5181C41.1043 36.6733 41.1059 36.9234 41.2611 37.0767C41.4163 37.2299 41.6664 37.2283 41.8196 37.0731L52.0886 26.6725C52.2419 26.5172 52.2403 26.2672 52.0851 26.1139Z" stroke="#FFFFFF" stroke-opacity="1.000000" stroke-width="0.500000" stroke-linejoin="round"/>
	<path id="Vector 3.5 (Stroke)" d="M64.594 38.3588C64.7482 38.5131 64.7482 38.7632 64.594 38.9174L54.5883 48.9231C54.4341 49.0773 54.184 49.0773 54.0298 48.9231C53.8755 48.7689 53.8755 48.5188 54.0298 48.3645L64.0354 38.3588C64.1897 38.2046 64.4398 38.2046 64.594 38.3588Z" fill="#FFFFFF" fill-opacity="1.000000" fill-rule="evenodd"/>
	<path id="Vector 3.5 (Stroke)" d="M64.594 38.3588C64.4398 38.2046 64.1897 38.2046 64.0354 38.3588L54.0298 48.3645C53.8755 48.5188 53.8755 48.7689 54.0298 48.9231C54.184 49.0773 54.4341 49.0773 54.5883 48.9231L64.594 38.9174C64.7482 38.7632 64.7482 38.5131 64.594 38.3588Z" stroke="#FFFFFF" stroke-opacity="1.000000" stroke-width="0.500000" stroke-linejoin="round"/>
	<path id="Vector 3.2 (Stroke)" d="M58.4085 26.2493C58.5615 26.4048 58.5595 26.6548 58.404 26.8079L41.9473 43.0012C41.7918 43.1542 41.5417 43.1522 41.3888 42.9968C41.2358 42.8412 41.2378 42.5912 41.3933 42.4382L57.85 26.2448C58.0055 26.0918 58.2556 26.0938 58.4085 26.2493Z" fill="#FFFFFF" fill-opacity="1.000000" fill-rule="evenodd"/>
	<path id="Vector 3.2 (Stroke)" d="M58.4085 26.2493C58.2556 26.0938 58.0055 26.0918 57.85 26.2448L41.3933 42.4382C41.2378 42.5912 41.2358 42.8412 41.3888 42.9968C41.5417 43.1522 41.7918 43.1542 41.9473 43.0012L58.404 26.8079C58.5595 26.6548 58.5615 26.4048 58.4085 26.2493Z" stroke="#FFFFFF" stroke-opacity="1.000000" stroke-width="0.500000" stroke-linejoin="round"/>
	<path id="Vector 3.4 (Stroke)" d="M64.5941 32.1713C64.7484 32.3256 64.7484 32.5757 64.5941 32.7299L48.0057 49.3183C47.8515 49.4725 47.6014 49.4725 47.4472 49.3183C47.2929 49.1641 47.2929 48.9139 47.4472 48.7597L64.0356 32.1713C64.1898 32.0171 64.4398 32.0171 64.5941 32.1713Z" fill="#FFFFFF" fill-opacity="1.000000" fill-rule="evenodd"/>
	<path id="Vector 3.4 (Stroke)" d="M64.5941 32.1713C64.4398 32.0171 64.1898 32.0171 64.0356 32.1713L47.4472 48.7597C47.2929 48.9139 47.2929 49.1641 47.4472 49.3183C47.6014 49.4725 47.8515 49.4725 48.0057 49.3183L64.5941 32.7299C64.7484 32.5757 64.7484 32.3256 64.5941 32.1713Z" stroke="#FFFFFF" stroke-opacity="1.000000" stroke-width="0.500000" stroke-linejoin="round"/>
	<path id="Vector 3.3 (Stroke)" d="M64.3308 26.247C64.485 26.4012 64.485 26.6514 64.3308 26.8056L41.6863 49.45C41.5321 49.6043 41.282 49.6043 41.1278 49.45C40.9735 49.2958 40.9735 49.0457 41.1278 48.8915L63.7722 26.247C63.9265 26.0928 64.1765 26.0928 64.3308 26.247Z" fill="#FFFFFF" fill-opacity="1.000000" fill-rule="evenodd"/>
	<path id="Vector 3.3 (Stroke)" d="M64.3308 26.247C64.1765 26.0928 63.9265 26.0928 63.7722 26.247L41.1278 48.8915C40.9735 49.0457 40.9735 49.2958 41.1278 49.45C41.282 49.6043 41.5321 49.6043 41.6863 49.45L64.3308 26.8056C64.485 26.6514 64.485 26.4012 64.3308 26.247Z" stroke="#FFFFFF" stroke-opacity="1.000000" stroke-width="0.500000" stroke-linejoin="round"/>
	<path id="86 DAYS" d="M220.164 48.3928Q218.023 48.3928 216.927 47.5461Q215.831 46.6953 215.831 45.334Q215.831 44.4001 216.645 43.5244Q217.462 42.6487 218.637 42.2751Q217.512 41.6443 216.927 40.8889Q216.342 40.1335 216.342 39.0461Q216.342 37.6848 217.437 36.834Q218.533 35.9832 220.675 35.9832Q221.745 35.9832 222.551 36.3774Q223.36 36.7676 223.8 37.3984Q224.244 38.0251 224.244 38.7058Q224.244 39.5027 223.555 40.2539Q222.87 41.001 221.949 41.2542Q223.497 41.9348 224.294 42.8728Q225.095 43.8066 225.095 45.1638Q225.095 46.0479 224.551 46.7783Q224.007 47.5088 222.903 47.9529Q221.799 48.3928 220.164 48.3928ZM221.443 40.9138Q222.086 40.6274 222.484 40.0837Q222.887 39.5359 222.887 38.7058Q222.887 38.0916 222.588 37.5645Q222.289 37.0374 221.82 36.7261Q221.355 36.4106 220.845 36.4106Q220.114 36.4106 219.629 36.9792Q219.147 37.5479 219.147 38.5356Q219.147 39.8928 221.443 40.9138ZM219.994 47.9695Q221.086 47.9695 221.687 47.3677Q222.289 46.7617 222.289 45.6743Q222.289 44.8567 221.472 44.0266Q220.658 43.1924 219.318 42.6155Q218.363 42.9558 217.819 43.6282Q217.276 44.2964 217.276 45.334Q217.276 46.0479 217.641 46.6538Q218.006 47.2556 218.624 47.6125Q219.247 47.9695 219.994 47.9695ZM230.707 48.3928Q228.565 48.3928 227.341 46.8655Q226.116 45.334 226.116 42.188Q226.116 39.1292 227.449 37.5562Q228.785 35.9832 231.13 35.9832Q232.134 35.9832 232.89 36.3152Q233.645 36.6472 234.044 37.1577Q234.446 37.6682 234.446 38.1953Q234.446 38.7722 234.098 39.1208Q233.749 39.4695 233.172 39.4695Q232.931 39.4695 232.695 39.4363L232.491 39.3865L232.491 36.6638L232.168 36.5476Q231.794 36.4106 231.47 36.4106Q230.636 36.4106 230.101 36.8547Q229.565 37.2947 229.283 38.4858Q229.005 39.6729 229.005 41.8477Q229.192 41.5613 229.466 41.3413Q230.109 40.8308 230.96 40.8308Q232.201 40.8308 233.126 41.2998Q234.056 41.7646 234.546 42.5989Q235.04 43.429 235.04 44.4832Q235.04 46.3052 233.907 47.3511Q232.778 48.3928 230.707 48.3928ZM230.707 48.0566Q231.047 48.0566 231.375 47.7163Q231.707 47.376 231.927 46.6123Q232.151 45.8445 232.151 44.6533Q232.151 43.4663 231.919 42.7026Q231.69 41.9348 231.342 41.5945Q230.993 41.2542 230.62 41.2542Q229.922 41.2542 229.507 41.9348Q229.092 42.6155 229.092 44.0598Q229.092 46.218 229.557 47.1394Q230.026 48.0566 230.707 48.0566ZM241.416 47.8865L242.437 47.6292L242.437 36.751L241.416 36.4937L241.416 36.2405L245.749 36.2405Q248.792 36.2405 250.414 37.8052Q252.041 39.3657 252.041 42.188Q252.041 45.0103 250.414 46.575Q248.792 48.1396 245.749 48.1396L241.416 48.1396L241.416 47.8865ZM245.749 47.7163Q247.331 47.7163 248.198 46.4338Q249.066 45.1472 249.066 42.188Q249.066 39.2329 248.198 37.9504Q247.331 36.6638 245.749 36.6638L245.239 36.6638L245.239 47.7163L245.749 47.7163ZM251.87 47.8865L253.232 47.376L257.905 36.0703L258.415 36.0703L263.259 47.6292L264.11 47.8865L264.11 48.1396L262.072 48.1396Q261.188 48.1396 260.623 47.7412Q260.063 47.3386 259.793 46.6953L258.926 44.6533L254.863 44.6533L253.742 47.376L255.016 47.8865L255.016 48.1396L251.87 48.1396L251.87 47.8865ZM255.033 44.23L258.756 44.23L256.884 39.76L255.033 44.23ZM265.897 47.8865L266.914 47.6292L266.914 43.7195L263.431 36.751L262.581 36.4937L262.581 36.2405L264.706 36.2405Q265.59 36.2405 266.125 36.614Q266.66 36.9875 267.001 37.6848L269.516 42.6985L272.102 37.0042L270.827 36.4937L270.827 36.2405L274.056 36.2405L274.056 36.4937L272.695 37.0042L269.719 43.5493L269.719 47.6292L270.74 47.8865L270.74 48.1396L265.897 48.1396L265.897 47.8865ZM278.389 48.3928Q277.186 48.3928 276.131 47.8491Q275.654 47.6125 275.33 47.2888Q275.094 47.679 274.737 47.9861Q274.43 48.2061 274.397 48.2227L273.969 48.2227L273.969 44.9937L274.65 44.9937Q274.907 45.8279 275.364 46.4919Q276.401 47.9695 278.049 47.9695Q279.02 47.9695 279.597 47.3926Q280.174 46.8157 280.174 45.8445Q280.174 45.2842 279.842 44.8442Q279.514 44.4001 279.02 44.0598Q278.526 43.7195 277.642 43.209Q276.522 42.5823 275.824 42.0718Q275.127 41.5613 274.633 40.7893Q274.139 40.0132 274.139 38.959Q274.139 38.1248 274.608 37.4565Q275.077 36.7842 276.011 36.3857Q276.945 35.9832 278.306 35.9832Q279.29 35.9832 280.278 36.5476Q280.651 36.751 281.025 37.0913Q281.315 36.6472 281.622 36.394Q281.925 36.1699 281.959 36.1533L282.386 36.1533L282.386 39.3865L281.705 39.3865Q281.485 38.5688 281.041 37.9048Q280.635 37.2615 280.029 36.8381Q279.427 36.4106 278.647 36.4106Q277.982 36.4106 277.505 36.9377Q277.032 37.4648 277.032 38.2783Q277.032 38.9092 277.397 39.4114Q277.762 39.9136 278.298 40.2871Q278.833 40.6606 279.751 41.1877Q280.821 41.7979 281.485 42.2751Q282.149 42.7524 282.606 43.458Q283.067 44.1636 283.067 45.0808Q283.067 45.998 282.54 46.7534Q282.012 47.5088 280.958 47.9529Q279.904 48.3928 278.389 48.3928Z" fill="#FFFFFF" fill-opacity="1.000000" fill-rule="evenodd"/>
	<path id="Vector 2" d="M150.09 69.035L150.09 15" stroke="#FFFFFF" stroke-opacity="1.000000" stroke-width="0.750000"/>
	<path id="Vector" d="M191.6 28.1996C191.337 26.9464 190.196 26 188.831 26C188.519 26 188.266 26.2458 188.266 26.5499C188.266 26.854 188.519 27.0999 188.831 27.0999C189.766 27.0999 190.527 27.84 190.527 28.7496C190.527 29.6591 189.766 30.3994 188.831 30.3994C188.519 30.3994 188.266 30.6451 188.266 30.9492C188.266 31.2534 188.519 31.4991 188.831 31.4991C190.196 31.4991 191.337 30.5527 191.6 29.2995L199.005 29.2995L199.005 34.2487L168.484 34.2487L168.484 29.2995L176.397 29.2995L178.093 29.2995C178.405 29.2995 178.658 29.0537 178.658 28.7496C178.658 28.4455 178.405 28.1996 178.093 28.1996L177.066 28.1996C177.3 27.5607 177.922 27.0999 178.658 27.0999C179.593 27.0999 180.354 27.84 180.354 28.7496C180.354 29.6591 179.593 30.3994 178.658 30.3994C178.346 30.3994 178.093 30.6451 178.093 30.9492C178.093 31.2534 178.346 31.4991 178.658 31.4991C180.216 31.4991 181.484 30.2657 181.484 28.7496C181.484 27.2335 180.216 26 178.658 26C177.294 26 176.152 26.9464 175.889 28.1996L167.354 28.1996L167.354 35.3486L167.354 57.3452L200.135 57.3452L200.135 35.3486L200.135 28.1996L191.6 28.1996ZM199.005 56.2454L168.484 56.2454L168.484 35.3486L199.005 35.3486L199.005 56.2454Z" fill="#FFFFFF" fill-opacity="1.000000" fill-rule="nonzero"/>
	<path id="Vector" d="M182.049 27.0999C182.984 27.0999 183.745 27.84 183.745 28.7496C183.745 29.6591 182.984 30.3994 182.049 30.3994C181.737 30.3994 181.484 30.6451 181.484 30.9492C181.484 31.2534 181.737 31.4991 182.049 31.4991C183.607 31.4991 184.875 30.2657 184.875 28.7496C184.875 27.2335 183.607 26 182.049 26C181.737 26 181.484 26.2458 181.484 26.5499C181.484 26.854 181.737 27.0999 182.049 27.0999Z" fill="#FFFFFF" fill-opacity="1.000000" fill-rule="nonzero"/>
	<path id="Vector" d="M185.44 27.0999C186.375 27.0999 187.136 27.84 187.136 28.7496C187.136 29.6591 186.375 30.3994 185.44 30.3994C185.128 30.3994 184.875 30.6451 184.875 30.9492C184.875 31.2534 185.128 31.4991 185.44 31.4991C186.998 31.4991 188.266 30.2657 188.266 28.7496C188.266 27.2335 186.998 26 185.44 26C185.128 26 184.875 26.2458 184.875 26.5499C184.875 26.854 185.128 27.0999 185.44 27.0999Z" fill="#FFFFFF" fill-opacity="1.000000" fill-rule="nonzero"/>
	<path id="Vector" d="M172.441 39.7473L184.875 39.7473C185.187 39.7473 185.44 39.5015 185.44 39.1974C185.44 38.8932 185.187 38.6475 184.875 38.6475L172.441 38.6475C172.129 38.6475 171.876 38.8932 171.876 39.1974C171.876 39.5015 172.129 39.7473 172.441 39.7473Z" fill="#FFFFFF" fill-opacity="1.000000" fill-rule="nonzero"/>
	<path id="Vector" d="M195.048 47.4468L186.571 47.4468C186.259 47.4468 186.005 47.6926 186.005 47.9967C186.005 48.3008 186.259 48.5466 186.571 48.5466L195.048 48.5466C195.36 48.5466 195.614 48.3008 195.614 47.9967C195.614 47.6926 195.36 47.4468 195.048 47.4468Z" fill="#FFFFFF" fill-opacity="1.000000" fill-rule="nonzero"/>
	<path id="Vector" d="M172.441 44.1477L178.093 44.1477C178.405 44.1477 178.658 43.9019 178.658 43.5978C178.658 43.2936 178.405 43.0479 178.093 43.0479L172.441 43.0479C172.129 43.0479 171.876 43.2936 171.876 43.5978C171.876 43.9019 172.129 44.1477 172.441 44.1477Z" fill="#FFFFFF" fill-opacity="1.000000" fill-rule="nonzero"/>
	<path id="Vector" d="M195.049 51.8462L189.397 51.8462C189.085 51.8462 188.831 52.092 188.831 52.3961C188.831 52.7002 189.085 52.946 189.397 52.946L195.049 52.946C195.361 52.946 195.614 52.7002 195.614 52.3961C195.614 52.092 195.361 51.8462 195.049 51.8462Z" fill="#FFFFFF" fill-opacity="1.000000" fill-rule="nonzero"/>
	<path id="Vector" d="M183.179 43.5978C183.179 43.9019 183.433 44.1477 183.745 44.1477L192.223 44.1477C192.534 44.1477 192.788 43.9019 192.788 43.5978C192.788 43.2936 192.534 43.0479 192.223 43.0479L183.745 43.0479C183.433 43.0479 183.179 43.2936 183.179 43.5978Z" fill="#FFFFFF" fill-opacity="1.000000" fill-rule="nonzero"/>
	<path id="Vector" d="M181.32 43.9882C181.422 43.8837 181.484 43.7407 181.484 43.5977C181.484 43.4542 181.422 43.3112 181.32 43.2073C181.111 43.0038 180.727 43.0038 180.517 43.2073C180.416 43.3112 180.354 43.4542 180.354 43.5977C180.354 43.7407 180.416 43.8837 180.517 43.9882C180.625 44.0921 180.772 44.1476 180.919 44.1476C181.066 44.1476 181.213 44.0921 181.32 43.9882Z" fill="#FFFFFF" fill-opacity="1.000000" fill-rule="nonzero"/>
	<path id="Vector" d="M174.702 47.9967C174.702 48.3008 174.955 48.5466 175.267 48.5466L183.745 48.5466C184.057 48.5466 184.31 48.3008 184.31 47.9967C184.31 47.6926 184.057 47.4468 183.745 47.4468L175.267 47.4468C174.955 47.4468 174.702 47.6926 174.702 47.9967Z" fill="#FFFFFF" fill-opacity="1.000000" fill-rule="nonzero"/>
	<path id="Vector" d="M172.441 48.5464C172.588 48.5464 172.735 48.4859 172.842 48.3869C172.944 48.2824 173.006 48.1395 173.006 47.9965C173.006 47.853 172.944 47.71 172.842 47.6115C172.633 47.4025 172.249 47.4025 172.04 47.606C171.938 47.71 171.876 47.853 171.876 47.9965C171.876 48.1395 171.938 48.2824 172.04 48.3869C172.147 48.4859 172.288 48.5464 172.441 48.5464Z" fill="#FFFFFF" fill-opacity="1.000000" fill-rule="nonzero"/>
	<path id="Vector" d="M195.048 44.1476C195.195 44.1476 195.342 44.0921 195.45 43.9882C195.557 43.8837 195.614 43.7407 195.614 43.5977C195.614 43.4542 195.557 43.3112 195.45 43.2073C195.235 43.0038 194.856 43.0038 194.647 43.2073C194.545 43.3112 194.483 43.4542 194.483 43.5977C194.483 43.7407 194.545 43.8837 194.647 43.9882C194.755 44.0921 194.902 44.1476 195.048 44.1476Z" fill="#FFFFFF" fill-opacity="1.000000" fill-rule="nonzero"/>
	<path id="Vector" d="M186.571 51.8462L172.441 51.8462C172.129 51.8462 171.876 52.092 171.876 52.3961C171.876 52.7002 172.129 52.946 172.441 52.946L186.571 52.946C186.883 52.946 187.136 52.7002 187.136 52.3961C187.136 52.092 186.883 51.8462 186.571 51.8462Z" fill="#FFFFFF" fill-opacity="1.000000" fill-rule="nonzero"/>
</svg>
